<svg xmlns="http://www.w3.org/2000/svg" width="1240.833" height="1044.367" viewBox="0 0 1240.833 1044.367">
  <g id="Grupo_1001157" data-name="Grupo 1001157" transform="translate(-179.5 -487)">
    <rect id="Rectángulo_345523" data-name="Rectángulo 345523" width="860" height="61" rx="10" transform="translate(370.333 487)" fill="#00bcd4"/>
    <text id="Sociolingüística_bilingüismo_y_neologismos_de_la_engua_deseñas_colombiana" data-name="Sociolingüística, bilingüismo y neologismos de la engua deseñas colombiana" transform="translate(321.333 504)" fill="#fff" font-size="24" font-family="Roboto-Bold, Roboto" font-weight="700"><tspan x="-416.115" y="23">Sociolingüística, bilingüismo y neologismos de la engua deseñas colombiana</tspan></text>
    <rect id="Rectángulo_343424" data-name="Rectángulo 343424" width="190" height="84" transform="translate(180.333 616)" fill="#fbe6e9"/>
    <rect id="Rectángulo_343425" data-name="Rectángulo 343425" width="190" height="84" transform="translate(495.333 616)" fill="#d2ebfb"/>
    <rect id="Rectángulo_343426" data-name="Rectángulo 343426" width="190" height="84" transform="translate(812.333 616)" fill="#ede6fb"/>
    <rect id="Rectángulo_343427" data-name="Rectángulo 343427" width="190" height="84" transform="translate(1125.333 616)" fill="#ffe7cb"/>
    <text id="Lengua_materna_y_segunda_lengua" data-name="Lengua materna y segunda lengua" transform="translate(210.333 637)" fill="#12263f" font-size="16" font-family="Roboto-Bold, Roboto" font-weight="700"><tspan x="-64.398" y="15">Lengua materna y </tspan><tspan x="-57.008" y="39">segunda lengua</tspan></text>
    <text id="Se_adquiere_de_forma_inconsciente_y_espontánea._" data-name="Se adquiere de forma inconsciente y espontánea. 
" transform="translate(194.333 756)" fill="#12263f" font-size="16" font-family="Roboto-Regular, Roboto"><tspan x="0" y="15">Se adquiere de forma inconsciente y </tspan><tspan x="0" y="33">espontánea. </tspan></text>
    <text id="Estudia_las_manifestaciones_de_la_variedad_de_la_lengua._" data-name="Estudia las manifestaciones de la variedad de la lengua. " transform="translate(509 756)" fill="#12263f" font-size="16" font-family="Roboto-Regular, Roboto"><tspan x="0" y="15">Estudia las manifestaciones de la </tspan><tspan x="0" y="33">variedad de la lengua. </tspan></text>
    <text id="Capacidad_para_desarrollar_algún_nivel_de_competencia:_hablar_leer_entender_escribir_en_una_segunda_lengua._" data-name="Capacidad para desarrollar algún nivel de competencia: hablar, leer, entender, escribir en una segunda lengua.
" transform="translate(826.333 736)" fill="#12263f" font-size="16" font-family="Roboto-Regular, Roboto"><tspan x="0" y="15">Capacidad para desarrollar algún nivel </tspan><tspan x="0" y="33">de competencia: hablar, leer, entender, </tspan><tspan x="0" y="51">escribir en una segunda lengua.</tspan></text>
    <text id="Un_neologismo_es_una_palabra_o_expresión_nueva_que_se_crea_en_una_lengua._" data-name="Un neologismo es una palabra o expresión nueva que se crea en una lengua.
" transform="translate(1139.333 736)" fill="#12263f" font-size="16" font-family="Roboto-Regular, Roboto"><tspan x="0" y="15">Un neologismo es una palabra o </tspan><tspan x="0" y="33">expresión nueva que se crea en una </tspan><tspan x="0" y="51">lengua.</tspan></text>
    <text id="Puede_ser_adquirida_o_aprendida._Se_apoya_en_el_conocimiento_previo_de_la_primera_lengua._" data-name="Puede ser adquirida o aprendida.
Se apoya en el conocimiento previo de la primera lengua.

" transform="translate(194.333 1024)" fill="#12263f" font-size="16" font-family="Roboto-Regular, Roboto"><tspan x="0" y="15">Puede ser adquirida o aprendida.</tspan><tspan x="0" y="43">Se apoya en el conocimiento previo de </tspan><tspan x="0" y="61">la primera lengua.</tspan></text>
    <text id="Factores_externos_a_la_lengua._Factores_internos_propios_de_la_lengua._" data-name="Factores externos a la lengua.
Factores internos propios de la lengua.
" transform="translate(509 834)" fill="#12263f" font-size="16" font-family="Roboto-Regular, Roboto"><tspan x="0" y="15">Factores externos a la lengua.</tspan><tspan x="0" y="43">Factores internos propios de la lengua.</tspan><tspan x="0" y="71"></tspan></text>
    <text id="Bilingüismo_coordinado_y_bilingüismo_compuesto._" data-name="Bilingüismo coordinado y bilingüismo compuesto.
" transform="translate(826.333 834)" fill="#12263f" font-size="16" font-family="Roboto-Regular, Roboto"><tspan x="0" y="15">Bilingüismo coordinado y bilingüismo </tspan><tspan x="0" y="33">compuesto.</tspan></text>
    <text id="Neologismos_de_forma._Neologismos_semánticos._Neologismos_estilísticos._Neologismos_funcionales._Neologismos_sociales._Neologismos_por_préstamos._Neologismos_tecnológicos._" data-name="Neologismos de forma.
Neologismos semánticos.
Neologismos estilísticos.
Neologismos funcionales.
Neologismos sociales.
Neologismos por préstamos.
Neologismos tecnológicos.


" transform="translate(1139.333 834)" fill="#12263f" font-size="16" font-family="Roboto-Regular, Roboto"><tspan x="0" y="15">Neologismos de forma.</tspan><tspan x="0" y="43">Neologismos semánticos.</tspan><tspan x="0" y="71">Neologismos estilísticos.</tspan><tspan x="0" y="99">Neologismos funcionales.</tspan><tspan x="0" y="127">Neologismos sociales.</tspan><tspan x="0" y="155">Neologismos por préstamos.</tspan><tspan x="0" y="183">Neologismos tecnológicos.</tspan></text>
    <text id="Neología_espontánea._Neología_planificada._" data-name="Neología espontánea.
Neología planificada.
" transform="translate(1139.333 1081)" fill="#12263f" font-size="16" font-family="Roboto-Regular, Roboto"><tspan x="0" y="15">Neología espontánea.</tspan><tspan x="0" y="43">Neología planificada.</tspan></text>
    <text id="Lengua_materna_o_segunda_lengua._De_acuerdo_al_contexto_lingüístico_familiar_de_la_persona_sorda._" data-name="Lengua materna o segunda lengua. 
De acuerdo al contexto lingüístico familiar de la persona sorda.

" transform="translate(194.333 1125)" fill="#12263f" font-size="16" font-family="Roboto-Regular, Roboto"><tspan x="0" y="15">Lengua materna o segunda lengua. </tspan><tspan x="0" y="43">De acuerdo al contexto lingüístico </tspan><tspan x="0" y="61">familiar de la persona sorda.</tspan></text>
    <text id="Dos_superdialectos._Dos_dialectos_costeños._Dos_dialectos_andinos._Una_serie_de_subdialectos._Subdivisiones_de_los_subdialectos._" data-name="Dos superdialectos.
Dos dialectos costeños.
Dos dialectos andinos.
Una serie de subdialectos.
Subdivisiones de los subdialectos.


" transform="translate(509 925)" fill="#12263f" font-size="16" font-family="Roboto-Regular, Roboto"><tspan x="0" y="15">Dos superdialectos.</tspan><tspan x="0" y="43">Dos dialectos costeños.</tspan><tspan x="0" y="71">Dos dialectos andinos.</tspan><tspan x="0" y="99">Una serie de subdialectos.</tspan><tspan x="0" y="127">Subdivisiones de los subdialectos.</tspan></text>
    <text id="Bilingüismo_limitado._Bilingüismo_desequilibrado._Bilingüismo_equilibrado._" data-name="Bilingüismo limitado.
Bilingüismo desequilibrado.
Bilingüismo equilibrado.
" transform="translate(826.333 925)" fill="#12263f" font-size="16" font-family="Roboto-Regular, Roboto"><tspan x="0" y="15">Bilingüismo limitado.</tspan><tspan x="0" y="43">Bilingüismo desequilibrado.</tspan><tspan x="0" y="71">Bilingüismo equilibrado.</tspan></text>
    <text id="Sistema_visual_-_Aspecto_kinésico._Sistema_auditivo_-_Movimientos_bucales_y_labiales._" data-name="Sistema visual - Aspecto kinésico.
Sistema auditivo - Movimientos bucales y labiales.
" transform="translate(826.333 1312.367)" fill="#12263f" font-size="16" font-family="Roboto-Regular, Roboto"><tspan x="0" y="15">Sistema visual - Aspecto kinésico.</tspan><tspan x="0" y="43">Sistema auditivo - Movimientos </tspan><tspan x="0" y="61">bucales y labiales.</tspan></text>
    <text id="Coloquial_-_Conversación_espontaneidad_e_imprecisión_expresividad_contacto_con_el_emisor._Técnico_-_Expresiones_que_pertenecen_a_un_área_o_campo_profesional_específico._" data-name="Coloquial - Conversación, espontaneidad e imprecisión, expresividad, contacto con el emisor. 
Técnico - Expresiones que pertenecen a un área o campo profesional específico.

" transform="translate(509 1093.633)" fill="#12263f" font-size="16" font-family="Roboto-Regular, Roboto"><tspan x="0" y="15">Coloquial - Conversación, </tspan><tspan x="0" y="33">espontaneidad e imprecisión, </tspan><tspan x="0" y="51">expresividad, contacto con el emisor. </tspan><tspan x="0" y="79">Técnico - Expresiones que pertenecen </tspan><tspan x="0" y="97">a un área o campo profesional </tspan><tspan x="0" y="115">específico.</tspan></text>
    <text id="Lengua_fuente_-_Lengua_de_partida_objeto_de_la_traducción_o_interpretación._Lengua_meta-_Resultado_de_la_traducción_o_interpretación._" data-name="Lengua fuente - Lengua de partida objeto de la traducción o interpretación.
Lengua meta- Resultado de la traducción o interpretación.

" transform="translate(509 1253.367)" fill="#12263f" font-size="16" font-family="Roboto-Regular, Roboto"><tspan x="0" y="15">Lengua fuente - Lengua de partida </tspan><tspan x="0" y="33">objeto de la traducción o </tspan><tspan x="0" y="51">interpretación.</tspan><tspan x="0" y="79">Lengua meta- Resultado de la </tspan><tspan x="0" y="97">traducción o interpretación.</tspan></text>
    <text id="Narrativos._Descriptivos._Dialogados._Expositivos._Argumentativos._" data-name="Narrativos.
Descriptivos.
Dialogados.
Expositivos.
Argumentativos.
" transform="translate(509 1394.367)" fill="#12263f" font-size="16" font-family="Roboto-Regular, Roboto"><tspan x="0" y="15">Narrativos.</tspan><tspan x="0" y="43">Descriptivos.</tspan><tspan x="0" y="71">Dialogados.</tspan><tspan x="0" y="99">Expositivos.</tspan><tspan x="0" y="127">Argumentativos.</tspan></text>
    <text id="Aprendizaje_-_Instrucción_formal_metalingüística_de_la_lengua._Adquisición_-_Proceso_espontáneo_e_inconsciente._" data-name="Aprendizaje - Instrucción formal metalingüística  de la lengua. 
Adquisición - Proceso espontáneo e inconsciente. 

" transform="translate(194.333 1243)" fill="#12263f" font-size="16" font-family="Roboto-Regular, Roboto"><tspan x="0" y="15">Aprendizaje - Instrucción formal </tspan><tspan x="0" y="33" xml:space="preserve">metalingüística  de la lengua. </tspan><tspan x="0" y="61">Adquisición - Proceso espontáneo e </tspan><tspan x="0" y="79">inconsciente. </tspan></text>
    <text id="Frecuencia_de_uso_y_nivel_de_dominio_de_lengua._Puede_ser_adquirida_o_aprendida._" data-name="Frecuencia de uso y nivel de dominio de lengua.
Puede ser adquirida o aprendida.

" transform="translate(228.333 819)" fill="#12263f" font-size="16" font-family="Roboto-Regular, Roboto"><tspan x="0" y="15">Frecuencia de uso y nivel de </tspan><tspan x="0" y="33">dominio de lengua.</tspan><tspan x="0" y="61">Puede ser adquirida o aprendida.</tspan></text>
    <text id="Puede_ser_adquirida_o_aprendida_en_armonía_con_las_características_fisiológicas_del_hablante._" data-name="Puede ser adquirida o aprendida en armonía con las características fisiológicas del hablante.
" transform="translate(228.333 933)" fill="#12263f" font-size="16" font-family="Roboto-Regular, Roboto"><tspan x="0" y="15">Puede ser adquirida o aprendida </tspan><tspan x="0" y="33">en armonía con las características </tspan><tspan x="0" y="51">fisiológicas del hablante.</tspan></text>
    <text id="_Sociolingüística" data-name=" Sociolingüística" transform="translate(510.333 647)" fill="#12263f" font-size="16" font-family="Roboto-Bold, Roboto" font-weight="700"><tspan x="-59.605" y="15" xml:space="preserve"> Sociolingüística</tspan></text>
    <text id="Lengua_materna_" data-name="Lengua materna " transform="translate(180.333 730)" fill="#12263f" font-size="16" font-family="Roboto-Bold, Roboto" font-weight="700"><tspan x="-58.391" y="15">Lengua materna </tspan></text>
    <text id="Dialecto" transform="translate(515 730)" fill="#12263f" font-size="16" font-family="Roboto-Bold, Roboto" font-weight="700"><tspan x="0" y="15">Dialecto</tspan></text>
    <text id="Segunda_lengua" data-name="Segunda lengua" transform="translate(180.333 998)" fill="#12263f" font-size="16" font-family="Roboto-Bold, Roboto" font-weight="700"><tspan x="-57.813" y="15">Segunda lengua</tspan></text>
    <text id="Variedad_dialectal_" data-name="Variedad dialectal
" transform="translate(499 808)" fill="#12263f" font-size="16" font-family="Roboto-Bold, Roboto" font-weight="700"><tspan x="-64.648" y="15">Variedad dialectal</tspan><tspan x="0" y="39"></tspan></text>
    <text id="Weinreich" transform="translate(836.333 808)" fill="#12263f" font-size="16" font-family="Roboto-Bold, Roboto" font-weight="700"><tspan x="0" y="15">Weinreich</tspan></text>
    <text id="Tipos_de_neologismos_" data-name="Tipos de neologismos
" transform="translate(1149.333 808)" fill="#12263f" font-size="16" font-family="Roboto-Bold, Roboto" font-weight="700"><tspan x="0" y="15">Tipos de neologismos</tspan></text>
    <text id="Recolección_validación_y_divulgación_de_neologismos_" data-name="Recolección, validación y divulgación de neologismos
" transform="translate(1149.333 1032.633)" fill="#12263f" font-size="16" font-family="Roboto-Bold, Roboto" font-weight="700"><tspan x="0" y="15">Recolección, validación y divulgación </tspan><tspan x="0" y="39">de neologismos</tspan></text>
    <text id="Lengua_de_señas_y_español_" data-name="Lengua de señas y español 
" transform="translate(180.333 1099)" fill="#12263f" font-size="16" font-family="Roboto-Bold, Roboto" font-weight="700"><tspan x="22.539" y="15">Lengua de señas y español </tspan></text>
    <text id="División_dialectal_en_Colombia_" data-name="División dialectal en Colombia
" transform="translate(505 899)" fill="#12263f" font-size="16" font-family="Roboto-Bold, Roboto" font-weight="700"><tspan x="11.105" y="15">División dialectal en Colombia</tspan></text>
    <text id="Hael" transform="translate(842.333 899)" fill="#12263f" font-size="16" font-family="Roboto-Bold, Roboto" font-weight="700"><tspan x="0" y="15">Hael</tspan></text>
    <text id="Sistemas_de_comunicación_" data-name="Sistemas de comunicación
" transform="translate(842.333 1286.367)" fill="#12263f" font-size="16" font-family="Roboto-Bold, Roboto" font-weight="700"><tspan x="0" y="15">Sistemas de comunicación</tspan></text>
    <text id="Uso_coloquial_y_técnico_" data-name="Uso coloquial y técnico
" transform="translate(505 1067.633)" fill="#12263f" font-size="16" font-family="Roboto-Bold, Roboto" font-weight="700"><tspan x="11.242" y="15">Uso coloquial y técnico</tspan></text>
    <text id="Aprendizaje_de_una_segunda_lengua_" data-name="Aprendizaje de una segunda lengua
" transform="translate(822.333 1017.633)" fill="#12263f" font-size="16" font-family="Roboto-Bold, Roboto" font-weight="700"><tspan x="14.533" y="15">Aprendizaje de una segunda lengua</tspan></text>
    <text id="Lengua_fuente_y_meta_" data-name="Lengua fuente y meta
" transform="translate(505 1227.367)" fill="#12263f" font-size="16" font-family="Roboto-Bold, Roboto" font-weight="700"><tspan x="16.621" y="15">Lengua fuente y meta</tspan></text>
    <text id="Tipología_y_estructuras_de_textos_" data-name="Tipología y estructuras de textos
" transform="translate(505 1368.367)" fill="#12263f" font-size="16" font-family="Roboto-Bold, Roboto" font-weight="700"><tspan x="7.984" y="15">Tipología y estructuras de textos</tspan></text>
    <text id="El_aprendizaje_y_la_adquisición_de_una_lengua_" data-name="El aprendizaje y la adquisición de una lengua
" transform="translate(197.333 1200)" fill="#12263f" font-size="16" font-family="Roboto-Bold, Roboto" font-weight="700"><tspan x="0" y="15">El aprendizaje y la adquisición de </tspan><tspan x="0" y="33">una lengua</tspan></text>
    <text id="Primera_lengua" data-name="Primera lengua" transform="translate(209.333 798)" fill="#12263f" font-size="16" font-family="Roboto-Bold, Roboto" font-weight="700"><tspan x="-54.789" y="15">Primera lengua</tspan></text>
    <text id="Lengua_natural" data-name="Lengua natural" transform="translate(209.333 912)" fill="#12263f" font-size="16" font-family="Roboto-Bold, Roboto" font-weight="700"><tspan x="-53.621" y="15">Lengua natural</tspan></text>
    <text id="_El_bilingüismo_" data-name=" El bilingüismo " transform="translate(842.333 648)" fill="#12263f" font-size="16" font-family="Roboto-Bold, Roboto" font-weight="700"><tspan x="-52.68" y="15" xml:space="preserve"> El bilingüismo </tspan></text>
    <text id="_Los_neologismos" data-name=" Los neologismos" transform="translate(1155.333 647)" fill="#12263f" font-size="16" font-family="Roboto-Bold, Roboto" font-weight="700"><tspan x="-63.289" y="15" xml:space="preserve"> Los neologismos</tspan></text>
    <path id="Trazado_688976" data-name="Trazado 688976" d="M-12379-9478.779h951.166" transform="translate(12657.835 10058.779)" fill="none" stroke="#707070" stroke-width="1"/>
    <g id="Grupo_894043" data-name="Grupo 894043" transform="translate(432 6)">
      <path id="Trazado_688977" data-name="Trazado 688977" d="M-12379-9478.779h21.244" transform="translate(-8678.946 12953) rotate(90)" fill="none" stroke="#707070" stroke-width="1"/>
      <path id="Polígono_5" data-name="Polígono 5" d="M6.5,0,13,11H0Z" transform="translate(806.333 600) rotate(180)" fill="#707071"/>
    </g>
    <g id="Grupo_894044" data-name="Grupo 894044" transform="translate(107 6)">
      <path id="Trazado_688977-2" data-name="Trazado 688977" d="M-12379-9478.779h21.244" transform="translate(-8678.946 12953) rotate(90)" fill="none" stroke="#707070" stroke-width="1"/>
      <path id="Polígono_5-2" data-name="Polígono 5" d="M6.5,0,13,11H0Z" transform="translate(806.333 600) rotate(180)" fill="#707071"/>
    </g>
    <g id="Grupo_894045" data-name="Grupo 894045" transform="translate(-209 6)">
      <path id="Trazado_688977-3" data-name="Trazado 688977" d="M-12379-9478.779h21.244" transform="translate(-8678.946 12953) rotate(90)" fill="none" stroke="#707070" stroke-width="1"/>
      <path id="Polígono_5-3" data-name="Polígono 5" d="M6.5,0,13,11H0Z" transform="translate(806.333 600) rotate(180)" fill="#707071"/>
    </g>
    <g id="Grupo_1000121" data-name="Grupo 1000121" transform="translate(0 -25)">
      <path id="Trazado_688977-4" data-name="Trazado 688977" d="M-12379-9478.779h21.244" transform="translate(-8678.946 12953) rotate(90)" fill="none" stroke="#707070" stroke-width="1"/>
      <path id="Polígono_5-4" data-name="Polígono 5" d="M6.5,0,13,11H0Z" transform="translate(806.333 600) rotate(180)" fill="#707071"/>
    </g>
    <g id="Grupo_894046" data-name="Grupo 894046" transform="translate(-521 6)">
      <path id="Trazado_688977-5" data-name="Trazado 688977" d="M-12379-9478.779h21.244" transform="translate(-8678.946 12953) rotate(90)" fill="none" stroke="#707070" stroke-width="1"/>
      <path id="Polígono_5-5" data-name="Polígono 5" d="M6.5,0,13,11H0Z" transform="translate(806.333 600) rotate(180)" fill="#707071"/>
    </g>
    <path id="Trazado_705229" data-name="Trazado 705229" d="M-12483.5-9410v22.5h-95.833v489.023" transform="translate(12759.333 10110)" fill="none" stroke="#707070" stroke-width="1"/>
    <path id="Trazado_705237" data-name="Trazado 705237" d="M-12483.5-9410v22.5h-95.833l.333,660.945" transform="translate(13074 10110)" fill="none" stroke="#707070" stroke-width="1"/>
    <path id="Trazado_705248" data-name="Trazado 705248" d="M-12483.5-9410v22.5h-95.833v576.281" transform="translate(13391.333 10110)" fill="none" stroke="#707070" stroke-width="1"/>
    <path id="Trazado_705257" data-name="Trazado 705257" d="M-12483.5-9410v22.5h-95.833v324.974" transform="translate(13704.333 10110)" fill="none" stroke="#707070" stroke-width="1"/>
    <path id="Trazado_705230" data-name="Trazado 705230" d="M-12579.333-9369.633h13.872" transform="translate(12759.333 10110)" fill="none" stroke="#707070" stroke-width="1"/>
    <path id="Trazado_705244" data-name="Trazado 705244" d="M-12579.333-9369.633h13.872" transform="translate(13074 10110)" fill="none" stroke="#707070" stroke-width="1"/>
    <path id="Trazado_705234" data-name="Trazado 705234" d="M-12579.333-9369.633h13.872" transform="translate(12759.333 10378)" fill="none" stroke="#707070" stroke-width="1"/>
    <path id="Trazado_705238" data-name="Trazado 705238" d="M-12579.333-9369.633h13.872" transform="translate(13074 10188)" fill="none" stroke="#707070" stroke-width="1"/>
    <path id="Trazado_705249" data-name="Trazado 705249" d="M-12579.333-9369.633h13.872" transform="translate(13391.333 10188)" fill="none" stroke="#707070" stroke-width="1"/>
    <path id="Trazado_705260" data-name="Trazado 705260" d="M-12579.333-9369.633h13.872" transform="translate(13704.333 10188)" fill="none" stroke="#707070" stroke-width="1"/>
    <path id="Trazado_705261" data-name="Trazado 705261" d="M-12579.333-9369.633h13.872" transform="translate(13704.333 10412.633)" fill="none" stroke="#707070" stroke-width="1"/>
    <path id="Trazado_705235" data-name="Trazado 705235" d="M-12579.333-9369.633h13.872" transform="translate(12759.333 10479)" fill="none" stroke="#707070" stroke-width="1"/>
    <path id="Trazado_705239" data-name="Trazado 705239" d="M-12579.333-9369.633h13.872" transform="translate(13074 10279)" fill="none" stroke="#707070" stroke-width="1"/>
    <path id="Trazado_705250" data-name="Trazado 705250" d="M-12579.333-9369.633h13.872" transform="translate(13391.333 10279)" fill="none" stroke="#707070" stroke-width="1"/>
    <path id="Trazado_705256" data-name="Trazado 705256" d="M-12579.333-9369.633h13.872" transform="translate(13391.333 10666.367)" fill="none" stroke="#707070" stroke-width="1"/>
    <path id="Trazado_705245" data-name="Trazado 705245" d="M-12579.333-9369.633h13.872" transform="translate(13074 10447.633)" fill="none" stroke="#707070" stroke-width="1"/>
    <path id="Trazado_705251" data-name="Trazado 705251" d="M-12579.333-9369.633h13.872" transform="translate(13391.333 10397.633)" fill="none" stroke="#707070" stroke-width="1"/>
    <path id="Trazado_705246" data-name="Trazado 705246" d="M-12579.333-9369.633h13.872" transform="translate(13074 10607.367)" fill="none" stroke="#707070" stroke-width="1"/>
    <path id="Trazado_705247" data-name="Trazado 705247" d="M-12579.333-9369.633h13.872" transform="translate(13074 10748.367)" fill="none" stroke="#707070" stroke-width="1"/>
    <path id="Trazado_705236" data-name="Trazado 705236" d="M-12579.333-9369.633h13.872" transform="translate(12759.333 10580)" fill="none" stroke="#707070" stroke-width="1"/>
    <path id="Trazado_705232" data-name="Trazado 705232" d="M-12579.333-9369.633h13.872" transform="translate(12789.666 10178)" fill="none" stroke="#707070" stroke-width="1"/>
    <path id="Trazado_705233" data-name="Trazado 705233" d="M-12579.333-9369.633h13.872" transform="translate(12789.666 10292)" fill="none" stroke="#707070" stroke-width="1"/>
    <path id="Trazado_705231" data-name="Trazado 705231" d="M-12549-9311.816V-9168.2" transform="translate(12759.333 10110)" fill="none" stroke="#707070" stroke-width="1"/>
    <circle id="Elipse_8231" data-name="Elipse 8231" cx="4" cy="4" r="4" transform="translate(217.333 826)" fill="#ff9d00"/>
    <circle id="Elipse_8232" data-name="Elipse 8232" cx="4" cy="4" r="4" transform="translate(217.333 872)" fill="#ff9d00"/>
    <circle id="Elipse_8233" data-name="Elipse 8233" cx="4" cy="4" r="4" transform="translate(217.333 940)" fill="#ff9d00"/>
    <circle id="Elipse_8234" data-name="Elipse 8234" cx="4" cy="4" r="4" transform="translate(183.333 1031)" fill="#ff9d00"/>
    <circle id="Elipse_8241" data-name="Elipse 8241" cx="4" cy="4" r="4" transform="translate(498 841)" fill="#ff9d00"/>
    <circle id="Elipse_8258" data-name="Elipse 8258" cx="4" cy="4" r="4" transform="translate(815.333 841)" fill="#ff9d00"/>
    <circle id="Elipse_8284" data-name="Elipse 8284" cx="4" cy="4" r="4" transform="translate(1128.333 841)" fill="#ff9d00"/>
    <circle id="Elipse_8291" data-name="Elipse 8291" cx="4" cy="4" r="4" transform="translate(1128.333 1088)" fill="#ff9d00"/>
    <circle id="Elipse_8285" data-name="Elipse 8285" cx="4" cy="4" r="4" transform="translate(1128.333 869)" fill="#ff9d00"/>
    <circle id="Elipse_8292" data-name="Elipse 8292" cx="4" cy="4" r="4" transform="translate(1128.333 1116)" fill="#ff9d00"/>
    <circle id="Elipse_8286" data-name="Elipse 8286" cx="4" cy="4" r="4" transform="translate(1128.333 897)" fill="#ff9d00"/>
    <circle id="Elipse_8287" data-name="Elipse 8287" cx="4" cy="4" r="4" transform="translate(1128.333 925)" fill="#ff9d00"/>
    <circle id="Elipse_8288" data-name="Elipse 8288" cx="4" cy="4" r="4" transform="translate(1128.333 953)" fill="#ff9d00"/>
    <circle id="Elipse_8289" data-name="Elipse 8289" cx="4" cy="4" r="4" transform="translate(1128.333 981)" fill="#ff9d00"/>
    <circle id="Elipse_8290" data-name="Elipse 8290" cx="4" cy="4" r="4" transform="translate(1128.333 1009)" fill="#ff9d00"/>
    <circle id="Elipse_8236" data-name="Elipse 8236" cx="4" cy="4" r="4" transform="translate(183.333 1132)" fill="#ff9d00"/>
    <circle id="Elipse_8242" data-name="Elipse 8242" cx="4" cy="4" r="4" transform="translate(498 932)" fill="#ff9d00"/>
    <circle id="Elipse_8259" data-name="Elipse 8259" cx="4" cy="4" r="4" transform="translate(815.333 932)" fill="#ff9d00"/>
    <circle id="Elipse_8277" data-name="Elipse 8277" cx="4" cy="4" r="4" transform="translate(815.333 1319.367)" fill="#ff9d00"/>
    <circle id="Elipse_8278" data-name="Elipse 8278" cx="4" cy="4" r="4" transform="translate(815.333 1347.367)" fill="#ff9d00"/>
    <circle id="Elipse_8249" data-name="Elipse 8249" cx="4" cy="4" r="4" transform="translate(498 1100.633)" fill="#ff9d00"/>
    <circle id="Elipse_8251" data-name="Elipse 8251" cx="4" cy="4" r="4" transform="translate(498 1260.367)" fill="#ff9d00"/>
    <circle id="Elipse_8253" data-name="Elipse 8253" cx="4" cy="4" r="4" transform="translate(498 1401.367)" fill="#ff9d00"/>
    <circle id="Elipse_8254" data-name="Elipse 8254" cx="4" cy="4" r="4" transform="translate(498 1428.367)" fill="#ff9d00"/>
    <circle id="Elipse_8255" data-name="Elipse 8255" cx="4" cy="4" r="4" transform="translate(498 1457)" fill="#ff9d00"/>
    <circle id="Elipse_8256" data-name="Elipse 8256" cx="4" cy="4" r="4" transform="translate(498 1484)" fill="#ff9d00"/>
    <circle id="Elipse_8250" data-name="Elipse 8250" cx="4" cy="4" r="4" transform="translate(498 1164)" fill="#ff9d00"/>
    <circle id="Elipse_8252" data-name="Elipse 8252" cx="4" cy="4" r="4" transform="translate(498 1323.734)" fill="#ff9d00"/>
    <circle id="Elipse_8238" data-name="Elipse 8238" cx="4" cy="4" r="4" transform="translate(183.333 1250)" fill="#ff9d00"/>
    <circle id="Elipse_8235" data-name="Elipse 8235" cx="4" cy="4" r="4" transform="translate(183.333 1059)" fill="#ff9d00"/>
    <circle id="Elipse_8244" data-name="Elipse 8244" cx="4" cy="4" r="4" transform="translate(498 869)" fill="#ff9d00"/>
    <circle id="Elipse_8237" data-name="Elipse 8237" cx="4" cy="4" r="4" transform="translate(183.333 1160)" fill="#ff9d00"/>
    <circle id="Elipse_8245" data-name="Elipse 8245" cx="4" cy="4" r="4" transform="translate(498 960)" fill="#ff9d00"/>
    <circle id="Elipse_8270" data-name="Elipse 8270" cx="4" cy="4" r="4" transform="translate(815.333 960)" fill="#ff9d00"/>
    <circle id="Elipse_8246" data-name="Elipse 8246" cx="4" cy="4" r="4" transform="translate(498 988)" fill="#ff9d00"/>
    <circle id="Elipse_8271" data-name="Elipse 8271" cx="4" cy="4" r="4" transform="translate(815.333 988)" fill="#ff9d00"/>
    <circle id="Elipse_8247" data-name="Elipse 8247" cx="4" cy="4" r="4" transform="translate(498 1016)" fill="#ff9d00"/>
    <circle id="Elipse_8248" data-name="Elipse 8248" cx="4" cy="4" r="4" transform="translate(498 1044)" fill="#ff9d00"/>
    <circle id="Elipse_8239" data-name="Elipse 8239" cx="4" cy="4" r="4" transform="translate(183.333 1295)" fill="#ff9d00"/>
    <text id="Desarrollar_habilidades_de_pensamiento_de_orden_superior._Comunicación_fluida_entre_profesores_y_estudiantes._Visualizar_la_información_la_organización_y_los_apoyos._Enseñanza_explícita._Andamiaje_y_mediación_durante_la_interacción._" data-name="Desarrollar habilidades de pensamiento de orden superior.
Comunicación fluida entre profesores y estudiantes.
Visualizar la información, la organización y los apoyos.
Enseñanza explícita.
Andamiaje y mediación durante la interacción.



" transform="translate(860 1069.633)" fill="#12263f" font-size="16" font-family="Roboto-Regular, Roboto"><tspan x="0" y="15">Desarrollar habilidades de </tspan><tspan x="0" y="33">pensamiento de orden superior.</tspan><tspan x="0" y="61">Comunicación fluida entre </tspan><tspan x="0" y="79">profesores y estudiantes.</tspan><tspan x="0" y="107">Visualizar la información, la </tspan><tspan x="0" y="125">organización y los apoyos.</tspan><tspan x="0" y="153">Enseñanza explícita.</tspan><tspan x="0" y="181">Andamiaje y mediación durante la </tspan><tspan x="0" y="199">interacción.</tspan></text>
    <text id="cinco_componentes_" data-name="cinco componentes
" transform="translate(841 1048.633)" fill="#12263f" font-size="16" font-family="Roboto-Bold, Roboto" font-weight="700"><tspan x="19.965" y="15">cinco componentes</tspan></text>
    <path id="Trazado_705254" data-name="Trazado 705254" d="M-12579.333-9369.633h13.872" transform="translate(13421.333 10428.633)" fill="none" stroke="#707070" stroke-width="1"/>
    <path id="Trazado_705255" data-name="Trazado 705255" d="M-12549-9311.816v230.179" transform="translate(13391 10360.633)" fill="none" stroke="#707070" stroke-width="1"/>
    <circle id="Elipse_8272" data-name="Elipse 8272" cx="4" cy="4" r="4" transform="translate(849 1076.633)" fill="#ff9d00"/>
    <circle id="Elipse_8273" data-name="Elipse 8273" cx="4" cy="4" r="4" transform="translate(849 1123.633)" fill="#ff9d00"/>
    <circle id="Elipse_8274" data-name="Elipse 8274" cx="4" cy="4" r="4" transform="translate(849 1170.633)" fill="#ff9d00"/>
    <circle id="Elipse_8275" data-name="Elipse 8275" cx="4" cy="4" r="4" transform="translate(849 1214.633)" fill="#ff9d00"/>
    <circle id="Elipse_8276" data-name="Elipse 8276" cx="4" cy="4" r="4" transform="translate(849 1242.367)" fill="#ff9d00"/>
  </g>
</svg>
