<svg xmlns="http://www.w3.org/2000/svg" xmlns:xlink="http://www.w3.org/1999/xlink" width="28" height="28" viewBox="0 0 28 28">
  <defs>
    <clipPath id="clip-path">
      <rect id="Rect치ngulo_345876" data-name="Rect치ngulo 345876" width="23.366" height="23.4" fill="#12263f"/>
    </clipPath>
  </defs>
  <g id="Grupo_1001158" data-name="Grupo 1001158" transform="translate(-600 -677)">
    <rect id="Rect치ngulo_345871" data-name="Rect치ngulo 345871" width="28" height="28" rx="5" transform="translate(600 677)" fill="#61d7fe"/>
    <g id="Grupo_1001153" data-name="Grupo 1001153" transform="translate(602 679.6)">
      <g id="Grupo_1001153-2" data-name="Grupo 1001153" clip-path="url(#clip-path)">
        <path id="Trazado_707564" data-name="Trazado 707564" d="M11.837,0c.8.528,1.6,1.059,2.4,1.58a.569.569,0,0,0,.316.08c.883-.04,1.766-.091,2.648-.14a.567.567,0,0,1,.582.353c.384.77.77,1.538,1.167,2.3a.692.692,0,0,0,.276.277c.756.395,1.519.775,2.279,1.161a.565.565,0,0,1,.375.676c-.053.867-.1,1.734-.146,2.6a.536.536,0,0,0,.1.29c.459.71.921,1.418,1.392,2.12a.663.663,0,0,1,0,.82q-.709,1.051-1.4,2.118a.648.648,0,0,0-.1.357c.037.853.081,1.705.14,2.557a.621.621,0,0,1-.391.671q-1.128.551-2.241,1.135a.773.773,0,0,0-.306.309q-.589,1.122-1.148,2.26a.61.61,0,0,1-.66.372c-.874-.059-1.75-.106-2.625-.149a.493.493,0,0,0-.27.086c-.715.465-1.432.929-2.135,1.411a.636.636,0,0,1-.814,0c-.7-.482-1.418-.948-2.135-1.411a.606.606,0,0,0-.337-.086c-.875.041-1.75.095-2.625.145a.565.565,0,0,1-.583-.351c-.37-.743-.753-1.479-1.121-2.223a.828.828,0,0,0-.4-.407c-.725-.354-1.438-.733-2.164-1.084a.663.663,0,0,1-.419-.725c.06-.844.1-1.689.139-2.534a.652.652,0,0,0-.1-.357q-.691-1.077-1.4-2.139a.6.6,0,0,1,0-.757q.718-1.059,1.41-2.136a.647.647,0,0,0,.1-.357C1.6,8,1.565,7.159,1.5,6.324a.688.688,0,0,1,.446-.756c.755-.362,1.5-.748,2.242-1.133A.573.573,0,0,0,4.42,4.2c.388-.75.766-1.506,1.146-2.26.193-.383.313-.448.74-.422.86.051,1.719.1,2.579.143a.5.5,0,0,0,.27-.091C9.87,1.11,10.581.638,11.294.169c.088-.058.179-.113.269-.169ZM15.55,20.831c.4.024.807.04,1.209.074a.32.32,0,0,0,.369-.207c.342-.705.693-1.406,1.063-2.1a1,1,0,0,1,.389-.389c.7-.373,1.407-.726,2.118-1.074a.289.289,0,0,0,.191-.33c-.054-.8-.1-1.6-.129-2.4a1,1,0,0,1,.147-.53c.421-.671.862-1.329,1.305-1.985a.272.272,0,0,0,0-.36c-.444-.656-.885-1.314-1.306-1.985a1,1,0,0,1-.15-.53c.025-.792.074-1.583.127-2.374a.32.32,0,0,0-.205-.368c-.692-.335-1.373-.692-2.063-1.03a.979.979,0,0,1-.468-.475c-.342-.7-.7-1.385-1.043-2.082a.263.263,0,0,0-.3-.175c-.783.052-1.567.087-2.35.139a1,1,0,0,1-.663-.183c-.629-.429-1.273-.837-1.9-1.268a.316.316,0,0,0-.419.008c-.63.428-1.273.837-1.9,1.265a.974.974,0,0,1-.642.177c-.783-.05-1.567-.087-2.35-.139a.277.277,0,0,0-.31.186c-.347.7-.709,1.4-1.055,2.1a.921.921,0,0,1-.442.438c-.7.348-1.4.71-2.1,1.054a.262.262,0,0,0-.172.3c.051.791.088,1.583.139,2.373a.918.918,0,0,1-.164.6c-.434.644-.855,1.3-1.291,1.94a.3.3,0,0,0,0,.4c.413.6.8,1.225,1.219,1.824a1.322,1.322,0,0,1,.232.922c-.058.729-.082,1.461-.13,2.191a.247.247,0,0,0,.165.278c.7.342,1.386.7,2.084,1.039a1,1,0,0,1,.49.483c.327.67.678,1.329,1,2a.373.373,0,0,0,.429.254c.775-.059,1.551-.1,2.328-.128a1,1,0,0,1,.529.151c.677.426,1.341.872,2,1.319a.245.245,0,0,0,.323,0c.657-.442,1.315-.884,1.986-1.3a1.181,1.181,0,0,1,.571-.165c.38-.01.761.033,1.141.053" transform="translate(0)" fill="#12263f"/>
        <path id="Trazado_707565" data-name="Trazado 707565" d="M95.971,103.833a7.29,7.29,0,1,1,7.247,7.308,7.3,7.3,0,0,1-7.247-7.308m13.61.033a6.314,6.314,0,1,0-6.349,6.3,6.331,6.331,0,0,0,6.349-6.3" transform="translate(-91.572 -92.144)" fill="#12263f"/>
        <path id="Trazado_707566" data-name="Trazado 707566" d="M182.934,208.667l1.957-1.847c.46-.434.917-.87,1.381-1.3a.809.809,0,0,1,.3-.2.451.451,0,0,1,.537.2.439.439,0,0,1-.037.569c-.139.16-.3.3-.455.448q-1.653,1.561-3.307,3.12c-.369.348-.594.346-.95-.018q-.9-.914-1.785-1.833a1.308,1.308,0,0,1-.173-.211.474.474,0,0,1,.66-.647,1.631,1.631,0,0,1,.207.178l1.667,1.54" transform="translate(-172.063 -195.891)" fill="#12263f"/>
      </g>
    </g>
  </g>
</svg>
