<svg xmlns="http://www.w3.org/2000/svg" xmlns:xlink="http://www.w3.org/1999/xlink" width="28" height="28" viewBox="0 0 28 28">
  <defs>
    <clipPath id="clip-path">
      <rect id="Rect치ngulo_345877" data-name="Rect치ngulo 345877" width="20.513" height="20.51" fill="#12263f"/>
    </clipPath>
  </defs>
  <g id="Grupo_1001159" data-name="Grupo 1001159" transform="translate(-810 -677)">
    <rect id="Rect치ngulo_345873" data-name="Rect치ngulo 345873" width="28" height="28" rx="5" transform="translate(810 677)" fill="#61d7fe"/>
    <g id="Grupo_1001154" data-name="Grupo 1001154" transform="translate(814.362 680.675)">
      <g id="Grupo_1001154-2" data-name="Grupo 1001154" clip-path="url(#clip-path)">
        <path id="Trazado_707567" data-name="Trazado 707567" d="M18.752,10.23q-.111-.675-.222-1.35c-.038-.232-.078-.463-.116-.695a.732.732,0,0,1,.6-.852.717.717,0,0,1,.833.577c.134.724.25,1.451.371,2.177s.241,1.466.364,2.2a.738.738,0,0,1-.882.882q-2.132-.357-4.264-.708a.74.74,0,0,1-.675-.915A.727.727,0,0,1,15.6,11l1.878.314c.056.009.113.011.127.012l-5.831-5.83V5.415a1.148,1.148,0,0,1-.12.174Q10.205,7.046,8.748,8.5a.748.748,0,0,1-1.193,0Q3.97,4.913.383,1.329A.765.765,0,0,1,.121.56.729.729,0,0,1,1.3.171c.054.044.1.1.151.145Q4.72,3.584,7.987,6.854a1.372,1.372,0,0,1,.136.2L9.876,5.3l1.347-1.347a.748.748,0,0,1,1.18,0l6.147,6.146c.053.053.108.1.162.155l.041-.016" transform="translate(-0.093 0)" fill="#12263f"/>
        <path id="Trazado_707568" data-name="Trazado 707568" d="M2.935,441.727q1.067,0,2.134,0a.733.733,0,0,1,.8.792q0,1.038,0,2.077a.74.74,0,0,1-.8.795q-2.134,0-4.268,0a.741.741,0,0,1-.8-.8q0-1.038,0-2.077a.734.734,0,0,1,.8-.791q1.067,0,2.134,0m1.447,1.478H1.487v.7H4.382Z" transform="translate(0 -424.882)" fill="#12263f"/>
        <path id="Trazado_707569" data-name="Trazado 707569" d="M194.942,441.724c.711,0,1.423,0,2.134,0a.734.734,0,0,1,.794.8q0,1.039,0,2.077a.737.737,0,0,1-.783.791q-2.153,0-4.306,0a.736.736,0,0,1-.776-.779q0-1.048,0-2.1a.732.732,0,0,1,.784-.787c.718,0,1.435,0,2.153,0m1.446,1.475H193.5v.7h2.893Z" transform="translate(-184.681 -424.879)" fill="#12263f"/>
        <path id="Trazado_707570" data-name="Trazado 707570" d="M386.98,441.727h2.1a.737.737,0,0,1,.818.809q0,1.029,0,2.058a.739.739,0,0,1-.8.8q-2.134,0-4.268,0a.741.741,0,0,1-.8-.794q0-1.038,0-2.077a.734.734,0,0,1,.8-.793c.718,0,1.435,0,2.153,0M388.4,443.2h-2.887v.71H388.4Z" transform="translate(-369.383 -424.882)" fill="#12263f"/>
        <path id="Trazado_707571" data-name="Trazado 707571" d="M2.941,214.816H.865a.748.748,0,0,1-.848-.84q0-1,0-2a.749.749,0,0,1,.827-.826q2.105,0,4.211,0a.748.748,0,0,1,.828.825q0,1.01,0,2.02a.742.742,0,0,1-.827.822q-1.057,0-2.115,0m1.453-2.182H1.506v.708H4.395Z" transform="translate(-0.016 -203.096)" fill="#12263f"/>
        <path id="Trazado_707572" data-name="Trazado 707572" d="M194.949,330.163h-2.1a.75.75,0,0,1-.828-.825q0-1.01,0-2.02a.739.739,0,0,1,.809-.82q2.124,0,4.249,0a.735.735,0,0,1,.808.8q0,1.029,0,2.058a.743.743,0,0,1-.808.806c-.711,0-1.423,0-2.134,0m1.46-2.189h-2.894v.7h2.894Z" transform="translate(-184.701 -314.046)" fill="#12263f"/>
        <path id="Trazado_707573" data-name="Trazado 707573" d="M2.969,326.507H5.046a.743.743,0,0,1,.837.831q0,1.01,0,2.02a.746.746,0,0,1-.818.815q-2.115,0-4.23,0a.746.746,0,0,1-.818-.816q0-1,0-2a.75.75,0,0,1,.857-.849h2.1M1.5,328.684H4.4v-.7H1.5Z" transform="translate(-0.015 -314.055)" fill="#12263f"/>
      </g>
    </g>
  </g>
</svg>
