<svg id="xMNRZH" xmlns="http://www.w3.org/2000/svg" xmlns:xlink="http://www.w3.org/1999/xlink" width="89.733" height="87.563" viewBox="0 0 89.733 87.563">
  <defs>
    <linearGradient id="linear-gradient" x1="0.5" x2="0.5" y2="1" gradientUnits="objectBoundingBox">
      <stop offset="0" stop-color="#fff"/>
      <stop offset="1" stop-color="#d2e6ee"/>
    </linearGradient>
  </defs>
  <g id="Grupo_88459" data-name="Grupo 88459" transform="translate(0 0)">
    <path id="Trazado_140887" data-name="Trazado 140887" d="M-174.168,47.482l-16.242-8.613c-.06.668-.138,1.137-.139,1.606q-.013,8.523,0,17.046c0,.756-.057,1.243-1.049,1.239-9.233-.033-18.467-.021-27.7-.026-.2,0-.407-.045-.755-.086V38.5l-16.48,8.884-12.822-23.675,15.831-9.34L-250.076,4.43l14.9-23.194L-219.7-9.656c.041-.773.085-1.25.09-1.727.048-5.306.116-10.611.113-15.917,0-1.125.326-1.507,1.493-1.5q12.659.067,25.319,0c1.1-.005,1.431.33,1.42,1.427-.05,5.18-.024,10.361-.019,15.542,0,.53.048,1.059.088,1.9l16.078-8.53L-160.343,4.88l-16.634,9.3c.513.352.821.588,1.153.786,4.594,2.733,9.184,5.472,13.795,8.177.664.389.886.711.474,1.462q-6.175,11.258-12.3,22.542A2.926,2.926,0,0,1-174.168,47.482Zm-16.657-9.153c.55.269.916.435,1.27.623,4.759,2.525,9.524,5.039,14.266,7.593.767.413,1.182.451,1.656-.43q5.7-10.593,11.5-21.128c.5-.9.392-1.326-.5-1.847-4.7-2.726-9.354-5.515-14.023-8.287-.3-.178-.579-.392-.993-.675l16.736-9.349a4.477,4.477,0,0,0-.245-.605q-6.791-10.754-13.574-21.512c-.51-.814-.968-.5-1.542-.2q-6.909,3.685-13.826,7.355c-.423.224-.86.422-1.47.72v-1.727c0-5.307-.024-10.614.02-15.92.009-1.077-.3-1.458-1.418-1.453q-12.41.059-24.821,0c-1.121-.005-1.415.386-1.412,1.458.018,5.432-.033,10.864-.065,16.3,0,.484-.047.968-.082,1.658-.578-.321-.971-.529-1.353-.754-4.354-2.566-8.735-5.087-13.04-7.733-1.135-.7-1.578-.432-2.213.578-3,4.775-6.074,9.5-9.119,14.247-1.484,2.313-2.963,4.63-4.537,7.089l16.733,10.046-16.035,9.463L-236.4,46.943l16.661-8.975v1.672c0,5.725.036,11.45-.028,17.173-.014,1.232.273,1.66,1.574,1.651q12.911-.08,25.823,0c1.178.006,1.587-.3,1.574-1.535-.061-5.682-.027-11.365-.027-17.048Z" transform="translate(250.076 28.801)"/>
    <path id="Trazado_140888" data-name="Trazado 140888" d="M-189.446,39.194v1.549c0,5.683-.035,11.366.027,17.048.013,1.237-.4,1.541-1.574,1.535q-12.912-.064-25.823,0c-1.3.008-1.588-.419-1.574-1.651.064-5.724.028-11.449.028-17.173V38.833l-16.661,8.975L-247.538,24.7l16.035-9.463L-248.236,5.192c1.574-2.459,3.053-4.776,4.537-7.089,3.045-4.745,6.12-9.473,9.119-14.247.634-1.009,1.078-1.275,2.212-.578,4.3,2.646,8.686,5.168,13.04,7.733.383.225.776.433,1.353.754.036-.691.08-1.174.083-1.658.032-5.432.083-10.864.065-16.3,0-1.072.291-1.463,1.412-1.458q12.41.058,24.821,0c1.118-.005,1.427.376,1.418,1.453-.044,5.306-.02,10.613-.02,15.92v1.727c.611-.3,1.048-.5,1.47-.72q6.915-3.672,13.826-7.355c.574-.306,1.031-.616,1.542.2Q-166.6-5.649-159.783,5.088a4.489,4.489,0,0,1,.245.605l-16.736,9.349c.414.283.693.5.993.675,4.669,2.771,9.328,5.561,14.023,8.287.9.521,1,.947.5,1.847q-5.8,10.536-11.5,21.128c-.474.881-.89.843-1.656.43-4.743-2.554-9.507-5.068-14.266-7.593C-188.53,39.628-188.9,39.463-189.446,39.194Zm15.534,4.821,10.025-17.984-17.861-10.7,17.865-11L-174.791-13.4l-18.03,9.9V-24.25h-21.867V-3.262L-232.809-13.4-243.553,4.339l17.785,11-17.788,10.7,9.876,17.977,18.494-9.825V56h22.929V34.263Z" transform="translate(248.697 27.937)" fill="#12263f"/>
    <path id="Trazado_140889" data-name="Trazado 140889" d="M-159.925,54.167l-18.344-9.752V66.154H-201.2V44.338l-18.494,9.825-9.876-17.977,17.788-10.7-17.785-11,10.744-17.735L-200.7,6.89V-14.1h21.867V6.649l18.03-9.9L-149.9,14.49l-17.865,11,17.861,10.7ZM-186.691,2.136A17.6,17.6,0,0,0-188.884.713a3.312,3.312,0,0,0-1.895-.335A5.856,5.856,0,0,0-195.373,4.2a8.742,8.742,0,0,0,.061,6.485,14.007,14.007,0,0,0,4.665,6.038c.083-1.2.144-2.08.228-3.294.172,3.458.327,6.572.482,9.685l.379.053c.63-.767,1.213-1.578,1.9-2.29a4.417,4.417,0,0,0,1.2-3.284c.021-3.968.152-7.936.237-11.9.01-.482,0-.964,0-1.4h-4.424v7.924a8.489,8.489,0,0,1-1.248-7.381,1.2,1.2,0,0,1,1.681-.966,8.252,8.252,0,0,0,2.354.18c1.171-.051,1.557-.78,1.122-1.95.178-.353.5-.7.509-1.059.057-1.5.051-3,.009-4.5a4.405,4.405,0,0,0-.325-1.569,2.126,2.126,0,0,0-2.59-1.226,1.9,1.9,0,0,0-1.666,2.024,27.494,27.494,0,0,0,.028,3.372c.03.329.483.682.82.91C-188.881.775-187.779,1.445-186.691,2.136Zm.485,12.473a7.234,7.234,0,0,0-.052,1.324,7.686,7.686,0,0,1-2.253,6.678,29.563,29.563,0,0,0-3.689,5.347c-1.273,2.266-.125,6.055,2.235,7.5a24.669,24.669,0,0,0-.022-3.183,6.976,6.976,0,0,1,2.359-6.239,30.163,30.163,0,0,0,4.122-5.179C-181.894,18.326-183.167,15.388-186.205,14.609Zm-3.773,36.955.491-.062c0-.946.066-1.9-.013-2.836a7.255,7.255,0,0,1,2.145-5.864,13.8,13.8,0,0,0,2.494-4.25c.538-1.344-.427-2.948-1.984-3.616.558,2.907-1.017,4.921-2.587,6.941a8.71,8.71,0,0,0-.947,1.319,5.6,5.6,0,0,0-.744,1.946A16.972,16.972,0,0,0-189.978,51.564Zm2.931-24.946c-1.647,1.317-2.8,2.66-2.617,4.88.222,2.652.05,5.336.055,8.007,0,.393.042.787.064,1.18,1.166-1.4,2.486-2.575,2.393-4.613-.115-2.537.058-5.087.1-7.631C-187.039,27.833-187.048,27.226-187.048,26.619Zm-1.7,30.047.539.2a20.011,20.011,0,0,0,1.745-2.224,2.166,2.166,0,0,0-.229-2.782,2.221,2.221,0,0,1-.691-1.974c.042-1.165.081-2.33.1-3.5.016-.848,0-1.7,0-2.546-1.053.864-1.915,1.668-1.837,3.094C-188.939,50.178-188.865,53.423-188.75,56.666Zm.488,3.268c.729-.9.588-1.87.307-3.205C-188.819,57.938-188.445,58.947-188.262,59.933Z" transform="translate(234.711 17.785)" fill="url(#linear-gradient)"/>
    <path id="Trazado_140890" data-name="Trazado 140890" d="M-86.318,45.252c.433,1.168.047,1.9-1.124,1.948a8.251,8.251,0,0,1-2.354-.18,1.2,1.2,0,0,0-1.681.966,8.489,8.489,0,0,0,1.248,7.381V47.443h4.424c0,.437.009.919,0,1.4-.085,3.968-.216,7.936-.237,11.9a4.417,4.417,0,0,1-1.2,3.284c-.687.712-1.27,1.523-1.9,2.29l-.379-.053c-.155-3.113-.31-6.227-.482-9.685-.084,1.214-.145,2.1-.228,3.294A14.007,14.007,0,0,1-94.9,53.84a8.742,8.742,0,0,1-.061-6.485,5.856,5.856,0,0,1,4.594-3.826,3.312,3.312,0,0,1,1.895.335,17.6,17.6,0,0,1,2.194,1.423Z" transform="translate(134.299 -25.367)" fill="#12263f"/>
    <path id="Trazado_140891" data-name="Trazado 140891" d="M-76.111,100.393c3.039.779,4.311,3.717,2.7,6.254a30.163,30.163,0,0,1-4.122,5.179,6.976,6.976,0,0,0-2.359,6.239,24.668,24.668,0,0,1,.022,3.183c-2.359-1.45-3.508-5.238-2.235-7.5a29.562,29.562,0,0,1,3.689-5.347,7.686,7.686,0,0,0,2.253-6.678A7.237,7.237,0,0,1-76.111,100.393Z" transform="translate(124.616 -67.999)" fill="#12263f"/>
    <path id="Trazado_140892" data-name="Trazado 140892" d="M-75.187,198.088a16.972,16.972,0,0,1-1.146-6.424,5.6,5.6,0,0,1,.744-1.946,8.709,8.709,0,0,1,.947-1.319c1.57-2.019,3.145-4.034,2.587-6.941,1.557.669,2.522,2.273,1.984,3.616a13.8,13.8,0,0,1-2.494,4.25,7.255,7.255,0,0,0-2.145,5.864c.079.939.013,1.891.013,2.836Z" transform="translate(119.919 -128.739)" fill="#12263f"/>
    <path id="Trazado_140893" data-name="Trazado 140893" d="M-70.936,25.408c-1.088-.691-2.19-1.36-3.256-2.083-.336-.228-.79-.581-.82-.91a27.5,27.5,0,0,1-.028-3.372,1.9,1.9,0,0,1,1.666-2.024,2.126,2.126,0,0,1,2.59,1.226,4.406,4.406,0,0,1,.325,1.569c.043,1.5.049,3-.009,4.5-.014.359-.331.706-.508,1.06Z" transform="translate(118.956 -5.487)" fill="#12263f"/>
    <path id="Trazado_140894" data-name="Trazado 140894" d="M-67.862,148.291c0,.607.009,1.214,0,1.821-.044,2.544-.217,5.094-.1,7.631.093,2.038-1.227,3.211-2.393,4.613-.022-.393-.063-.786-.064-1.18-.006-2.67.166-5.355-.055-8.007C-70.664,150.951-69.509,149.608-67.862,148.291Z" transform="translate(115.525 -103.887)" fill="#12263f"/>
    <path id="Trazado_140895" data-name="Trazado 140895" d="M-67.88,229.814c-.116-3.242-.19-6.488-.366-9.727-.078-1.426.785-2.231,1.837-3.094,0,.849.013,1.7,0,2.546-.022,1.165-.061,2.331-.1,3.5a2.221,2.221,0,0,0,.691,1.974,2.166,2.166,0,0,1,.229,2.782,20.009,20.009,0,0,1-1.745,2.224Z" transform="translate(113.842 -155.363)" fill="#12263f"/>
    <path id="Trazado_140896" data-name="Trazado 140896" d="M-65.542,271.58c-.183-.987-.557-2,.307-3.205C-64.953,269.71-64.813,270.685-65.542,271.58Z" transform="translate(111.991 -193.862)" fill="#fff"/>
  </g>
</svg>
