<svg xmlns="http://www.w3.org/2000/svg" width="319.602" height="193.031" viewBox="0 0 319.602 193.031">
  <g id="Grupo_1001169" data-name="Grupo 1001169" transform="translate(-38.06 -44.598)">
    <g id="freepik--background-complete--inject-8" transform="translate(42.134 44.598)">
      <path id="Trazado_145134" data-name="Trazado 145134" d="M625.16,135.87c-1.954,4.885-5.074,12.78-6.511,16.408a2.086,2.086,0,0,0,1.171,2.7l13.345,5.316a2.082,2.082,0,0,0,2.705-1.161l0-.006,6.473-16.276a4.629,4.629,0,0,0-2.582-6.015l-.008,0h0l.949-2.371L631.97,131l-.9,2.248h-.033A4.629,4.629,0,0,0,625.16,135.87Z" transform="translate(-347.315 -90.026)" fill="#f5f5f5"/>
      <path id="Trazado_145135" data-name="Trazado 145135" d="M646.172,131.61l-.432,1.086,8.612,3.794.56-1.4Z" transform="translate(-361.635 -90.347)" fill="#e0e0e0"/>
      <path id="Trazado_145136" data-name="Trazado 145136" d="M647.269,124.119l8.146,3.245a1.422,1.422,0,0,1,.8,1.848l-.864,2.168a.915.915,0,0,1-1.189.512l-9.084-3.619a.915.915,0,0,1-.512-1.189l.864-2.168a1.423,1.423,0,0,1,1.848-.8Z" transform="translate(-360.981 -86.356)" fill="#ebebeb"/>
      <path id="Trazado_145137" data-name="Trazado 145137" d="M646.84,128.645a11.187,11.187,0,0,1,.745-2.2,11.384,11.384,0,0,1,.977-2.115,11.317,11.317,0,0,1-.745,2.215A10.561,10.561,0,0,1,646.84,128.645Z" transform="translate(-362.213 -86.519)" fill="#e0e0e0"/>
      <path id="Trazado_145138" data-name="Trazado 145138" d="M649.27,129.615a11.3,11.3,0,0,1,.744-2.205,10.585,10.585,0,0,1,.977-2.11,11.306,11.306,0,0,1-.745,2.205A10.588,10.588,0,0,1,649.27,129.615Z" transform="translate(-363.491 -87.029)" fill="#e0e0e0"/>
      <path id="Trazado_145139" data-name="Trazado 145139" d="M651.7,130.58a11.167,11.167,0,0,1,.745-2.205,10.691,10.691,0,0,1,.977-2.115,11.1,11.1,0,0,1-.745,2.205A11.383,11.383,0,0,1,651.7,130.58Z" transform="translate(-364.768 -87.534)" fill="#e0e0e0"/>
      <path id="Trazado_145140" data-name="Trazado 145140" d="M654.13,131.55a21.753,21.753,0,0,1,1.721-4.32,11.147,11.147,0,0,1-.749,2.205A11.378,11.378,0,0,1,654.13,131.55Z" transform="translate(-366.046 -88.044)" fill="#e0e0e0"/>
      <path id="Trazado_145141" data-name="Trazado 145141" d="M656.56,132.515a10.9,10.9,0,0,1,.745-2.205,11.067,11.067,0,0,1,.948-2.11,10.9,10.9,0,0,1-.744,2.205A11.06,11.06,0,0,1,656.56,132.515Z" transform="translate(-367.324 -88.554)" fill="#e0e0e0"/>
      <path id="Trazado_145142" data-name="Trazado 145142" d="M659,133.48a11.147,11.147,0,0,1,.749-2.205,11.37,11.37,0,0,1,.972-2.115A21.764,21.764,0,0,1,659,133.48Z" transform="translate(-368.607 -89.058)" fill="#e0e0e0"/>
      <path id="Trazado_145143" data-name="Trazado 145143" d="M661.41,134.45a11.093,11.093,0,0,1,.745-2.205,11.388,11.388,0,0,1,.977-2.115,11.17,11.17,0,0,1-.745,2.205A10.688,10.688,0,0,1,661.41,134.45Z" transform="translate(-369.874 -89.568)" fill="#e0e0e0"/>
      <path id="Trazado_145144" data-name="Trazado 145144" d="M663.84,135.415a11.191,11.191,0,0,1,.744-2.2,10.7,10.7,0,0,1,.977-2.115,11.3,11.3,0,0,1-.744,2.205A10.926,10.926,0,0,1,663.84,135.415Z" transform="translate(-371.151 -90.078)" fill="#e0e0e0"/>
      <rect id="Rectángulo_32485" data-name="Rectángulo 32485" width="8.915" height="13.478" rx="1.48" transform="translate(276.036 57.467) rotate(-68.28)" fill="#ebebeb"/>
      <path id="Trazado_145145" data-name="Trazado 145145" d="M641.557,161.447a1.371,1.371,0,0,1,.047-.142l.142-.389.555-1.465c.474-1.266,1.186-3.054,2.03-5.217l.052.128L633.4,150.013c-.033,0,.3-.128.161-.066h0v.028l-.024.062-.047.119-.095.237-.19.474c-.128.313-.251.626-.375.948-.247.621-.474,1.233-.735,1.835l-1.385,3.457-.062-.147,7.853,3.187,2.257.948.607.256a2.176,2.176,0,0,1,.213.1l-.2-.066-.593-.223-2.257-.863-7.967-3.116-.1-.038.043-.109c.436-1.1.891-2.257,1.37-3.462.237-.6.474-1.214.73-1.835.123-.313.247-.626.375-.948l.185-.474.1-.237.047-.119.024-.062v-.028h0l.166-.071,10.969,4.363.09.038-.038.09c-.892,2.181-1.627,3.974-2.143,5.25l-.6,1.423-.156.365C641.585,161.414,641.563,161.453,641.557,161.447Z" transform="translate(-353.601 -99.91)" fill="#e0e0e0"/>
      <path id="Trazado_145146" data-name="Trazado 145146" d="M646.069,159.389a33.234,33.234,0,0,1-3.794-1.371,32.741,32.741,0,0,1-3.685-1.6,32.345,32.345,0,0,1,3.794,1.371A32.955,32.955,0,0,1,646.069,159.389Z" transform="translate(-357.876 -103.391)" fill="#e0e0e0"/>
      <path id="Trazado_145147" data-name="Trazado 145147" d="M645.009,162.059a32.029,32.029,0,0,1-3.794-1.371,33.684,33.684,0,0,1-3.685-1.6,32.728,32.728,0,0,1,3.794,1.371A33.293,33.293,0,0,1,645.009,162.059Z" transform="translate(-357.318 -104.795)" fill="#e0e0e0"/>
      <path id="Trazado_145148" data-name="Trazado 145148" d="M643.989,164.629a31.693,31.693,0,0,1-3.794-1.371,33.288,33.288,0,0,1-3.685-1.6,32.024,32.024,0,0,1,3.794,1.371A33.7,33.7,0,0,1,643.989,164.629Z" transform="translate(-356.782 -106.146)" fill="#e0e0e0"/>
      <path id="Trazado_145149" data-name="Trazado 145149" d="M653.308,139.179a38.6,38.6,0,0,1-4.112-1.5,39.52,39.52,0,0,1-4.026-1.736,37.529,37.529,0,0,1,4.116,1.5A38.978,38.978,0,0,1,653.308,139.179Z" transform="translate(-361.335 -92.623)" fill="#e0e0e0"/>
      <path id="Trazado_145150" data-name="Trazado 145150" d="M621.12,155.038a5.465,5.465,0,0,1,.266-.787c.2-.536.474-1.247.806-2.11.688-1.778,1.655-4.225,2.741-6.924.545-1.347,1.062-2.632,1.541-3.794a8.153,8.153,0,0,1,1.731-2.883,3.637,3.637,0,0,1,2.015-1.029,2.721,2.721,0,0,1,.621,0,.812.812,0,0,1,.209.052,5.458,5.458,0,0,0-.816.047,3.7,3.7,0,0,0-1.9,1.058,8.171,8.171,0,0,0-1.646,2.845c-.474,1.176-.982,2.461-1.522,3.794-1.081,2.7-2.077,5.141-2.807,6.9l-.877,2.077A4.883,4.883,0,0,1,621.12,155.038Z" transform="translate(-348.69 -93.439)" fill="#fff"/>
      <path id="Trazado_145151" data-name="Trazado 145151" d="M635.526,185.691a3.251,3.251,0,0,1-.522-.422c-.161-.147-.365-.318-.607-.507s-.5-.422-.82-.645a23.139,23.139,0,0,0-2.262-1.5,24.267,24.267,0,0,0-2.983-1.423,24.538,24.538,0,0,0-3.163-1,23.026,23.026,0,0,0-2.67-.474c-.384-.057-.735-.071-1.039-.1s-.574-.038-.787-.043a4.049,4.049,0,0,1-.673-.052,3.3,3.3,0,0,1,.673-.047h.792a6.369,6.369,0,0,1,1.048.062,20.877,20.877,0,0,1,2.708.417,23.522,23.522,0,0,1,3.206.991,23.014,23.014,0,0,1,3.007,1.484,21.265,21.265,0,0,1,2.253,1.555c.308.232.569.474.8.678a7.664,7.664,0,0,1,.579.541A3.6,3.6,0,0,1,635.526,185.691Z" transform="translate(-348.102 -115.513)" fill="#fff"/>
      <rect id="Rectángulo_32486" data-name="Rectángulo 32486" width="43.036" height="59.122" rx="2.41" transform="translate(0 84.739) rotate(-25.7)" fill="#e0e0e0"/>
      <rect id="Rectángulo_32487" data-name="Rectángulo 32487" width="38.232" height="55.029" transform="translate(2.714 84.831) rotate(-25.7)" fill="#fafafa"/>
      <path id="Trazado_145152" data-name="Trazado 145152" d="M88.72,195.582a4.676,4.676,0,0,0-4.9-.512l-1.058-2.082a3.211,3.211,0,0,0-4.268-1.5h0a3.215,3.215,0,0,0-1.506,4.29l0,.006,1.058,2.2-.735.37a4.69,4.69,0,0,0-2.585,4.126v1.091l15-7.218Zm-8,.341a1.756,1.756,0,1,1,.006,0Z" transform="translate(-61.414 -121.664)" fill="#ebebeb"/>
      <path id="Trazado_145153" data-name="Trazado 145153" d="M76.056,225.327c.033.062-2.034,1.119-4.614,2.371a47.248,47.248,0,0,1-4.742,2.134c-.047-.062,2.034-1.119,4.614-2.371A49.556,49.556,0,0,1,76.056,225.327Z" transform="translate(-57.191 -139.619)" fill="#e0e0e0"/>
      <path id="Trazado_145154" data-name="Trazado 145154" d="M72.84,233.56a12.631,12.631,0,0,1-2.2,1.2,12.578,12.578,0,0,1-2.3.948,12.816,12.816,0,0,1,2.21-1.171A13.247,13.247,0,0,1,72.84,233.56Z" transform="translate(-58.054 -143.949)" fill="#e0e0e0"/>
      <path id="Trazado_145155" data-name="Trazado 145155" d="M99.737,220.549c.028.057-5.767,2.912-12.946,6.364s-13.022,6.208-13.051,6.165,5.767-2.931,12.927-6.388S99.709,220.487,99.737,220.549Z" transform="translate(-60.893 -137.108)" fill="#e0e0e0"/>
      <path id="Trazado_145156" data-name="Trazado 145156" d="M102.257,225.769c.028.062-5.767,2.912-12.946,6.369S76.288,238.345,76.26,238.3s5.762-2.912,12.946-6.369S102.219,225.707,102.257,225.769Z" transform="translate(-62.218 -139.852)" fill="#e0e0e0"/>
      <path id="Trazado_145157" data-name="Trazado 145157" d="M104.767,231c.033.062-5.767,2.912-12.942,6.369S78.8,243.575,78.77,243.533s5.767-2.912,12.946-6.369S104.739,230.937,104.767,231Z" transform="translate(-63.538 -142.602)" fill="#e0e0e0"/>
      <path id="Trazado_145158" data-name="Trazado 145158" d="M107.287,236.229c.028.062-5.767,2.912-12.946,6.369s-13.022,6.2-13.051,6.165,5.767-2.912,12.946-6.364S107.259,236.167,107.287,236.229Z" transform="translate(-64.863 -145.352)" fill="#e0e0e0"/>
      <path id="Trazado_145159" data-name="Trazado 145159" d="M109.807,241.449c.028.062-5.767,2.917-12.946,6.369s-13.022,6.208-13.051,6.165,5.781-2.931,12.942-6.388S109.774,241.392,109.807,241.449Z" transform="translate(-66.188 -148.096)" fill="#e0e0e0"/>
      <path id="Trazado_145160" data-name="Trazado 145160" d="M112.317,246.679c.028.062-5.767,2.912-12.942,6.369s-13.027,6.208-13.056,6.165,5.767-2.912,12.946-6.369S112.289,246.617,112.317,246.679Z" transform="translate(-67.508 -150.846)" fill="#e0e0e0"/>
      <path id="Trazado_145161" data-name="Trazado 145161" d="M101.589,264.59a2.412,2.412,0,0,1-.474.289l-1.375.707c-1.167.583-2.788,1.38-4.581,2.243s-3.429,1.636-4.614,2.181l-1.423.635a2.292,2.292,0,0,1-.531.2,2.972,2.972,0,0,1,.474-.289l1.375-.7c1.167-.588,2.788-1.385,4.581-2.248s3.429-1.631,4.614-2.177l1.423-.635A2.515,2.515,0,0,1,101.589,264.59Z" transform="translate(-68.701 -160.264)" fill="#e0e0e0"/>
      <path id="Trazado_145162" data-name="Trazado 145162" d="M120.034,206.35a10.968,10.968,0,0,1-2.03,1.114,10.8,10.8,0,0,1-2.134.892,10.966,10.966,0,0,1,2.03-1.114A10.8,10.8,0,0,1,120.034,206.35Z" transform="translate(-83.044 -129.643)" fill="#e0e0e0"/>
      <path id="Trazado_145163" data-name="Trazado 145163" d="M101.518,282a27.871,27.871,0,0,1-3.32,1.736,28.617,28.617,0,0,1-3.429,1.513,27.885,27.885,0,0,1,3.32-1.736A28.634,28.634,0,0,1,101.518,282Z" transform="translate(-71.951 -169.417)" fill="#e0e0e0"/>
      <path id="Trazado_145164" data-name="Trazado 145164" d="M104.172,286.5a28.789,28.789,0,0,1-3.376,1.759A29.114,29.114,0,0,1,97.31,289.8a29.766,29.766,0,0,1,3.377-1.764A29.578,29.578,0,0,1,104.172,286.5Z" transform="translate(-73.286 -171.783)" fill="#e0e0e0"/>
      <path id="Trazado_145165" data-name="Trazado 145165" d="M146.383,261.39a6.493,6.493,0,0,1-1.574.9,6.647,6.647,0,0,1-1.688.673,6.914,6.914,0,0,1,1.579-.9A6.841,6.841,0,0,1,146.383,261.39Z" transform="translate(-97.372 -158.581)" fill="#e0e0e0"/>
      <path id="Trazado_145166" data-name="Trazado 145166" d="M148.653,265.55a6.913,6.913,0,0,1-1.579.9,6.843,6.843,0,0,1-1.684.673,6.494,6.494,0,0,1,1.574-.9A6.649,6.649,0,0,1,148.653,265.55Z" transform="translate(-98.565 -160.768)" fill="#e0e0e0"/>
      <path id="Trazado_145167" data-name="Trazado 145167" d="M104.044,294.68a12.615,12.615,0,0,1-3.154,1.518,6.454,6.454,0,0,1,1.522-.892A6.333,6.333,0,0,1,104.044,294.68Z" transform="translate(-75.168 -176.084)" fill="#e0e0e0"/>
      <path id="Trazado_145168" data-name="Trazado 145168" d="M152.282,270.42a3.518,3.518,0,0,1-1.124.678,3.8,3.8,0,0,1-1.238.474,3.53,3.53,0,0,1,1.129-.683A3.592,3.592,0,0,1,152.282,270.42Z" transform="translate(-100.947 -163.329)" fill="#e0e0e0"/>
      <path id="Trazado_145169" data-name="Trazado 145169" d="M105.87,303.935a.821.821,0,0,1,.133-.1l.4-.266,1.532-.982,5.506-3.457.109-.071.047.119a3.124,3.124,0,0,1,.062,2.091,2.552,2.552,0,0,1-1.518,1.641,2.523,2.523,0,0,1-2.371-.261,2.206,2.206,0,0,1-.782-2.31,2.042,2.042,0,0,1,.474-.863,1.577,1.577,0,0,1,.18-.171.955.955,0,0,1,.213-.147.36.36,0,0,1,.332,0,.577.577,0,0,1,.19.218,4.135,4.135,0,0,1,.474,1.755,4.084,4.084,0,0,1-.27,1.731,2.622,2.622,0,0,1-1.02,1.352,1.512,1.512,0,0,1-1.6-.033,2.3,2.3,0,0,1-.948-1.19,5.543,5.543,0,0,1,0-2.679l.028-.18.123.138a3.742,3.742,0,0,1,.906,2.044A4.016,4.016,0,0,1,107.9,304a3.569,3.569,0,0,1-.474.948c-.076.1-.138.166-.18.213s-.062.071-.066.066a4.42,4.42,0,0,0,.631-1.261,4.055,4.055,0,0,0,.114-1.636,3.582,3.582,0,0,0-.9-1.944l.152-.043a5.335,5.335,0,0,0,0,2.58,2.085,2.085,0,0,0,.868,1.072,1.289,1.289,0,0,0,1.371.024,2.432,2.432,0,0,0,.92-1.238,3.973,3.973,0,0,0,.247-1.641,3.91,3.91,0,0,0-.474-1.646.294.294,0,0,0-.1-.128.105.105,0,0,0-.1,0,1.169,1.169,0,0,0-.308.256,1.784,1.784,0,0,0-.4.754,1.964,1.964,0,0,0,.692,2.053,2.291,2.291,0,0,0,2.115.237,2.323,2.323,0,0,0,1.385-1.489,2.886,2.886,0,0,0-.043-1.94l.156.052-5.553,3.381-1.565.948-.413.237A.609.609,0,0,1,105.87,303.935Z" transform="translate(-77.787 -178.387)" fill="#e0e0e0"/>
      <path id="Trazado_145170" data-name="Trazado 145170" d="M151.361,281.433a1.426,1.426,0,0,1-.076.446,1.888,1.888,0,0,1-.218.5,1.061,1.061,0,0,1-.593.474.738.738,0,0,1-.474,0,.95.95,0,0,1-.4-.308,8.989,8.989,0,0,1-.531-.9l-1.162-2.172.213-.047c-.038,1.086-.076,2.272-.123,3.514a7.667,7.667,0,0,1-.033.877v.474l-.213-.441c-.65-1.333-1.252-2.58-1.783-3.661h.2a12.636,12.636,0,0,0-.474,3.32c0,.811.052,1.271.028,1.276a1.089,1.089,0,0,1-.071-.332,9.476,9.476,0,0,1-.081-.948,11.563,11.563,0,0,1,.37-3.362l.071-.275.123.256,1.816,3.647-.237.047a7.872,7.872,0,0,1,.033-.877c.052-1.242.1-2.428.142-3.514V279l.194.375c.417.783.8,1.513,1.148,2.167a9.5,9.5,0,0,0,.5.9.635.635,0,0,0,.688.289,1.215,1.215,0,0,0,.773-.844A3.633,3.633,0,0,1,151.361,281.433Z" transform="translate(-98.656 -167.84)" fill="#e0e0e0"/>
      <path id="Trazado_145171" data-name="Trazado 145171" d="M147.842,280.388c.038.052-1.921,1.451-4.372,3.12s-4.472,2.973-4.51,2.917,1.9-1.451,4.372-3.12S147.8,280.331,147.842,280.388Z" transform="translate(-95.184 -168.569)" fill="#e0e0e0"/>
      <path id="Trazado_145172" data-name="Trazado 145172" d="M155.473,281.26a37.464,37.464,0,0,1-3.206,2.917,37.75,37.75,0,0,1-3.367,2.732,38.4,38.4,0,0,1,3.206-2.917A37.746,37.746,0,0,1,155.473,281.26Z" transform="translate(-100.411 -169.028)" fill="#e0e0e0"/>
      <path id="Trazado_145173" data-name="Trazado 145173" d="M180.67,54.667h-2l-4.33-6.084V44.6s-3.087-.19-2.722,5.027-.028,3.884-.028,3.884-6.549.028-7.113.6c-.4.413-.574,6.919-.645,10.433a3.823,3.823,0,0,0,2.708,3.846,2.748,2.748,0,0,0,.688.114c1.631,0,9.959-1.328,9.959-1.328h3.448Z" transform="translate(-108.26 -44.598)" fill="#f5f5f5"/>
      <path id="Trazado_145174" data-name="Trazado 145174" d="M206.237,63.52l-1.228,13.648H201.59V63.8Z" transform="translate(-128.113 -54.547)" fill="#f5f5f5"/>
    </g>
    <g id="freepik--Icons--inject-8" transform="translate(152.112 46.207)">
      <path id="Trazado_145175" data-name="Trazado 145175" d="M486.766,57.66c-.512-4.154-4.026-8.029-8.214-8.029a9.177,9.177,0,0,0-6.506,3.092,17.341,17.341,0,0,0-1.655,1.959,16.921,16.921,0,0,0-1.233-2.243,9.164,9.164,0,0,0-5.771-4.315c-4.1-.82-8.309,2.281-9.632,6.255s-.223,8.427,1.954,12a23.548,23.548,0,0,0,12.8,10.566c4.742-.612,11.125-4.828,13.961-7.905S487.264,61.809,486.766,57.66Z" transform="translate(-370.371 -47.991)" fill="#81d4fa"/>
      <path id="Trazado_145176" data-name="Trazado 145176" d="M485.864,75.146a.606.606,0,0,1-.138,0l-.4-.028-1.551-.128-5.691-.522.1-.062c-.688,1.788-1.489,3.884-2.371,6.165l-.142.37-.095-.389c-.726-3-1.532-6.359-2.371-9.9-.261-1.1-.522-2.177-.773-3.229l.242.047-4.344,5.975-.043.057h-.071l-10-1.043-2.845-.313-.749-.095A1,1,0,0,1,454.37,72a1.331,1.331,0,0,1,.261,0l.749.052,2.845.247,10.006.948-.109.047,4.325-5.985.171-.242.066.289c.256,1.053.512,2.129.778,3.229l2.371,9.907H475.6c.9-2.291,1.717-4.382,2.419-6.165l.024-.071h.076l5.691.607,1.541.18.4.052A.47.47,0,0,1,485.864,75.146Z" transform="translate(-370.996 -58.022)" fill="#fafafa"/>
      <rect id="Rectángulo_32488" data-name="Rectángulo 32488" width="3.13" height="14.032" transform="translate(10.281 35.595)" fill="#636363"/>
      <rect id="Rectángulo_32489" data-name="Rectángulo 32489" width="14.032" height="3.13" transform="translate(4.828 41.044)" fill="#636363"/>
      <path id="Trazado_145177" data-name="Trazado 145177" d="M302.058,124.848a1.6,1.6,0,0,1-.024-.19c0-.138-.024-.322-.038-.555a2.083,2.083,0,0,0-.028-.408c-.028-.147-.047-.313-.076-.474a8.411,8.411,0,0,0-.247-1.2,11.144,11.144,0,0,0-1.3-3.092,11.585,11.585,0,0,0-13.928-4.946,11.785,11.785,0,0,0-1.513.664,12.2,12.2,0,0,0-1.423.915,13.13,13.13,0,0,0-1.314,1.114,13.48,13.48,0,0,0-1.133,1.342,11.313,11.313,0,0,0-1.655,3.187,11.471,11.471,0,0,0,0,7.308,11.25,11.25,0,0,0,1.655,3.187,12.5,12.5,0,0,0,1.133,1.342,12.628,12.628,0,0,0,1.314,1.119,12.2,12.2,0,0,0,1.423.915,12.54,12.54,0,0,0,1.513.664,11.623,11.623,0,0,0,13.928-4.941,11.1,11.1,0,0,0,1.3-3.1,8.2,8.2,0,0,0,.247-1.2c.028-.18.062-.341.076-.474a3.747,3.747,0,0,1,.028-.408c0-.237.028-.417.038-.555a1.428,1.428,0,0,1,.024-.19,1.151,1.151,0,0,1,0,.19v.967a4.34,4.34,0,0,1-.062.474,8.783,8.783,0,0,1-.228,1.214,11.173,11.173,0,0,1-1.276,3.144,11.785,11.785,0,0,1-14.137,5.079,11.479,11.479,0,0,1-4.334-2.741,12.819,12.819,0,0,1-1.157-1.366,11.32,11.32,0,0,1-1.693-3.258,12.582,12.582,0,0,1-.612-3.732,12.723,12.723,0,0,1,.612-3.727,11.419,11.419,0,0,1,1.693-3.253,13.4,13.4,0,0,1,1.157-1.371,13.661,13.661,0,0,1,1.342-1.133,11.714,11.714,0,0,1,17.082,3.481,11.205,11.205,0,0,1,1.276,3.139,8.95,8.95,0,0,1,.228,1.219c0,.175.052.341.062.474v.967A1.165,1.165,0,0,1,302.058,124.848Z" transform="translate(-278.56 -82.201)" fill="#7e5ee3"/>
    </g>
    <g id="freepik--character-3--inject-8" transform="translate(238.782 76.337)">
      <path id="Trazado_145178" data-name="Trazado 145178" d="M542.57,286.972s13.876-3.32,14.336-3.893l-11.415-29.4A21.507,21.507,0,0,0,532.179,240.7,37.716,37.716,0,0,0,518.7,238.62l-19.268-1.02a38.158,38.158,0,0,0-15.2,4.206,30.677,30.677,0,0,0-14.27,15.73l-8.64,21.582,21.814,4.557.83,23.19-3.286,32h60.161l-.417-50.714h0Z" transform="translate(-461.32 -177.812)" fill="#ff9d00"/>
      <g id="Grupo_73243" data-name="Grupo 73243" transform="translate(77.034 101.422)" opacity="0.3">
        <path id="Trazado_145179" data-name="Trazado 145179" d="M639.936,325.4c0,.066-3.58,1.242-8.062,2.622s-8.1,2.452-8.114,2.371,3.576-1.242,8.062-2.627S639.917,325.33,639.936,325.4Z" transform="translate(-623.76 -325.394)" fill="#fff"/>
      </g>
      <path id="Trazado_145180" data-name="Trazado 145180" d="M511.667,270.989a3.214,3.214,0,0,1-.37-.507c-.218-.332-.555-.806-.991-1.375a22.915,22.915,0,0,0-1.636-1.9,25.179,25.179,0,0,0-2.257-2.087,26.4,26.4,0,0,0-2.518-1.774,24.175,24.175,0,0,0-2.215-1.19c-.645-.308-1.181-.536-1.555-.683a2.707,2.707,0,0,1-.574-.256,3.687,3.687,0,0,1,.607.166,16.952,16.952,0,0,1,1.593.612,21.975,21.975,0,0,1,2.262,1.157,24.3,24.3,0,0,1,2.551,1.774,23.188,23.188,0,0,1,2.271,2.125,21.091,21.091,0,0,1,1.608,1.963,15.02,15.02,0,0,1,.949,1.423A2.853,2.853,0,0,1,511.667,270.989Z" transform="translate(-481.42 -190.231)" fill="#263238"/>
      <path id="Trazado_145181" data-name="Trazado 145181" d="M515.5,296.62c.066,0-.607,7.085-1.5,15.811s-1.679,15.8-1.745,15.787.6-7.085,1.5-15.811S515.451,296.611,515.5,296.62Z" transform="translate(-488.098 -208.843)" fill="#263238"/>
      <path id="Trazado_145182" data-name="Trazado 145182" d="M615.283,258.627a13.38,13.38,0,0,1-.308-1.423,26.665,26.665,0,0,0-.948-3.4,26.265,26.265,0,0,0-1.423-3.234,13.8,13.8,0,0,1-.673-1.3,2.271,2.271,0,0,1,.251.308c.147.209.346.522.578.911a20.153,20.153,0,0,1,1.5,3.234,19.71,19.71,0,0,1,.9,3.448c.071.451.114.816.133,1.072A1.389,1.389,0,0,1,615.283,258.627Z" transform="translate(-540.506 -183.948)" fill="#263238"/>
      <path id="Trazado_145183" data-name="Trazado 145183" d="M620.67,301.355a4.224,4.224,0,0,1-.114-.7c-.062-.446-.133-1.1-.213-1.9-.156-1.612-.322-3.851-.408-6.321s-.081-4.719-.038-6.34c.024-.811.047-1.465.076-1.9a3.489,3.489,0,0,1,.071-.7,4.571,4.571,0,0,1,.029.7v1.906c0,1.617.024,3.855.109,6.326s.223,4.7.337,6.317c.052.773.095,1.423.133,1.9A3.621,3.621,0,0,1,620.67,301.355Z" transform="translate(-544.68 -201.945)" fill="#263238"/>
      <path id="Trazado_145184" data-name="Trazado 145184" d="M543.3,312.1a98.861,98.861,0,0,1-15.175-.285V313.8H543.3Z" transform="translate(-496.442 -216.835)" fill="#fff"/>
      <g id="Grupo_73244" data-name="Grupo 73244" transform="translate(28.482 61.652)" opacity="0.3">
        <path id="Trazado_145185" data-name="Trazado 145185" d="M554.87,242.36a1.3,1.3,0,0,1,.062.3l.133.873c.095.768.228,1.9.337,3.32.228,2.845.427,6.9.474,11.685v.18l-.166-.076c-3.026-1.475-6.416-3.078-9.959-4.842L528.5,245.167l-5.216-2.641-1.423-.726-.36-.2a.524.524,0,0,1-.123-.071.534.534,0,0,1,.133.052l.375.171,1.423.688,5.245,2.57,17.3,8.565c3.528,1.764,6.914,3.372,9.959,4.856l-.161.1c-.052-4.776-.218-8.825-.408-11.676-.085-1.423-.2-2.547-.27-3.32-.043-.37-.076-.664-.1-.877A2.857,2.857,0,0,1,554.87,242.36Z" transform="translate(-521.38 -241.53)" fill="#fff"/>
      </g>
      <g id="Grupo_73245" data-name="Grupo 73245" transform="translate(1.446 97.571)" opacity="0.3">
        <path id="Trazado_145186" data-name="Trazado 145186" d="M488.641,323.147a.854.854,0,0,1-.251-.043l-.707-.166-2.594-.659c-2.191-.564-5.217-1.328-8.565-2.139s-6.393-1.513-8.6-2.016l-2.608-.6-.707-.171a1.2,1.2,0,0,1-.242-.076.927.927,0,0,1,.251,0l.716.128c.621.114,1.518.294,2.627.522,2.215.474,5.264,1.133,8.617,1.944s6.374,1.608,8.536,2.21c1.091.3,1.973.555,2.575.735l.7.213A1.253,1.253,0,0,1,488.641,323.147Z" transform="translate(-464.37 -317.272)" fill="#fff"/>
      </g>
      <path id="Trazado_145187" data-name="Trazado 145187" d="M586.37,235.7a6.489,6.489,0,0,1,2.561,2.475,22.847,22.847,0,0,1,3.049,8.062,33.118,33.118,0,0,1,.555,4.742c0,.73.033,1.423,0,2.072s-.043,1.252-.1,1.8-.114,1.039-.161,1.48-.133.8-.185,1.1a3.368,3.368,0,0,1-.228.948,3.6,3.6,0,0,1,.038-.948l.1-1.11c.028-.441.057-.948.085-1.475s0-1.143.043-1.783-.033-1.328-.057-2.044a37.07,37.07,0,0,0-.583-4.647,25.294,25.294,0,0,0-2.845-7.953,10.924,10.924,0,0,0-1.579-2.011A9.217,9.217,0,0,1,586.37,235.7Z" transform="translate(-527.068 -176.813)" fill="#263238"/>
      <path id="Trazado_145188" data-name="Trazado 145188" d="M533.75,236a10.228,10.228,0,0,1-1,1.423,20.334,20.334,0,0,0-2.234,4.173,28.406,28.406,0,0,0-1.655,6.815c-.346,2.627-.474,5.567-.688,8.645s-.166,6.008-.171,8.678,0,5.079,0,7.113-.052,3.666-.109,4.8a8.109,8.109,0,0,1-.175,1.755,8.288,8.288,0,0,1-.114-1.759c-.033-1.152-.071-2.784-.123-4.79s-.119-4.429-.157-7.113-.047-5.624.114-8.726.36-6.027.749-8.7a27.2,27.2,0,0,1,1.849-6.924,17.371,17.371,0,0,1,2.49-4.14A6.44,6.44,0,0,1,533.75,236Z" transform="translate(-496.011 -176.971)" fill="#263238"/>
      <path id="Trazado_145189" data-name="Trazado 145189" d="M594.686,300.142a9.039,9.039,0,0,1-.095-1.565c-.029-1.01-.052-2.471-.071-4.268,0-.906,0-1.9-.029-2.95s0-2.2-.062-3.367a5.571,5.571,0,0,0-1.209-3.32,4.572,4.572,0,0,0-3.32-1.584,5.216,5.216,0,0,0-3.5,1.356,6.024,6.024,0,0,0-1.764,3.078c-.294,1.129-.417,2.262-.593,3.32l-.474,2.912c-.285,1.778-.526,3.22-.7,4.211a9.529,9.529,0,0,1-.322,1.537,8.879,8.879,0,0,1,.133-1.565c.119-1,.3-2.447.545-4.235.123-.9.261-1.873.4-2.921a30.47,30.47,0,0,1,.56-3.362,6.4,6.4,0,0,1,1.9-3.32,5.692,5.692,0,0,1,3.789-1.5,5.026,5.026,0,0,1,3.7,1.759,5.974,5.974,0,0,1,1.3,3.595c.071,1.214,0,2.338,0,3.4s-.024,2.049-.038,2.95c0,1.8-.052,3.263-.085,4.268A9.665,9.665,0,0,1,594.686,300.142Z" transform="translate(-525.059 -201.472)" fill="#263238"/>
      <path id="Trazado_145190" data-name="Trazado 145190" d="M596.45,273.87a8.131,8.131,0,0,1-1.84,4.742,6.673,6.673,0,0,1,3.059.057,10.471,10.471,0,0,1-.816-4.785" transform="translate(-531.4 -196.882)" fill="#263238"/>
      <path id="Trazado_145191" data-name="Trazado 145191" d="M596.875,290.84a14.528,14.528,0,0,0-.749-1.9,5.9,5.9,0,0,0-1.38-1.65,5.121,5.121,0,0,0-2.333-1.11,4.978,4.978,0,0,0-2.57.256,5.613,5.613,0,0,0-1.835,1.11,14.1,14.1,0,0,0-1.3,1.551c-.081-.043.142-.839,1.062-1.8a5.521,5.521,0,0,1,1.9-1.28,5.216,5.216,0,0,1,2.817-.322,5.311,5.311,0,0,1,2.542,1.252,5.662,5.662,0,0,1,1.394,1.835A3.44,3.44,0,0,1,596.875,290.84Z" transform="translate(-527.235 -203.063)" fill="#263238"/>
      <path id="Trazado_145192" data-name="Trazado 145192" d="M627.606,371.23c2.845,0,5.349-2.034,6.677-4.524a19.168,19.168,0,0,0,1.8-8.209,66.626,66.626,0,0,0-2.713-22.146L621,338.508l3.372,33.334Z" transform="translate(-545.275 -229.732)" fill="#ffbe9d"/>
      <path id="Trazado_145193" data-name="Trazado 145193" d="M529.37,364.669l40.3-1.465,9.774-47.224L537,318.337Z" transform="translate(-497.099 -219.022)" fill="#263238"/>
      <path id="Trazado_145194" data-name="Trazado 145194" d="M573.11,315.052l.607-1.2,3.215-.232s.816-2.11,5.416-2.328c4.116-.19,4.268,1.9,4.268,1.9h2.219v1.01Z" transform="translate(-520.096 -216.548)" fill="#455a64"/>
      <path id="Trazado_145195" data-name="Trazado 145195" d="M607.267,385.41l3.054-.887a3.73,3.73,0,0,1,1.769-.081h0a3.727,3.727,0,0,1,1.9,1,25.219,25.219,0,0,1,2.874,3.135,2.955,2.955,0,0,1,0,2.414c-.342.455.749,2.812.612,3.595a4.894,4.894,0,0,1-.612,1.9c-.275.327,0,1.446-.683,2.291a11.332,11.332,0,0,1-1.295,1.366s-8.394.394-9.209,0a12.287,12.287,0,0,1-2.253-1.9s-.749-1.371.408-1.5l-4.776-1.826a1.138,1.138,0,0,1-.692-1.423.8.8,0,0,1,.422-.474s-2.144-.678-2.641-.9c-.991-.436-1.366-2.741.688-2.447,1.081.156,2.547.474,2.547.474a1.512,1.512,0,0,1,.313-2.03c.664-.474,3.652.1,3.652.1l3.927-2.8Z" transform="translate(-531.784 -254.981)" fill="#ffbe9d"/>
      <path id="Trazado_145196" data-name="Trazado 145196" d="M617.446,411.559a7.063,7.063,0,0,1-2.48-.37,6.169,6.169,0,0,1-2.286-1.034c.033-.057,1.034.432,2.371.8S617.456,411.5,617.446,411.559Z" transform="translate(-540.901 -268.534)" fill="#eb996e"/>
      <path id="Trazado_145197" data-name="Trazado 145197" d="M610.315,404.643a32.389,32.389,0,0,1-3.893-.868,31.268,31.268,0,0,1-3.832-1.1,64.993,64.993,0,0,1,7.725,1.973Z" transform="translate(-535.596 -264.601)" fill="#eb996e"/>
      <path id="Trazado_145198" data-name="Trazado 145198" d="M611.767,398.409a73.688,73.688,0,0,1-8.327-1.949A73.682,73.682,0,0,1,611.767,398.409Z" transform="translate(-536.043 -261.336)" fill="#eb996e"/>
      <path id="Trazado_145199" data-name="Trazado 145199" d="M619.176,392.51a5.5,5.5,0,0,1-1.077.346l-1.186.3-.7.175a2.683,2.683,0,0,1-.806.076,4.477,4.477,0,0,1-.787-.128l-.707-.161-1.186-.285a5.2,5.2,0,0,1-1.086-.327,5.092,5.092,0,0,1,1.119.156l1.2.232a14.179,14.179,0,0,0,1.456.266,5.32,5.32,0,0,0,1.423-.223l1.2-.256A5.266,5.266,0,0,1,619.176,392.51Z" transform="translate(-540.354 -259.259)" fill="#eb996e"/>
      <path id="Trazado_145200" data-name="Trazado 145200" d="M627.924,395.9c.029,0,.142.085.232.313a1.391,1.391,0,0,1,.033.948,1.422,1.422,0,0,1-.56.754c-.2.133-.356.152-.37.123a2.4,2.4,0,0,0,.692-.948A2.634,2.634,0,0,0,627.924,395.9Z" transform="translate(-548.566 -261.042)" fill="#eb996e"/>
      <path id="Trazado_145201" data-name="Trazado 145201" d="M628.185,402.738c.057-.028.247.308.218.768s-.247.778-.3.74.038-.351.057-.754S628.114,402.762,628.185,402.738Z" transform="translate(-548.999 -264.636)" fill="#eb996e"/>
      <path id="Trazado_145202" data-name="Trazado 145202" d="M628.176,410.158c.062-.024.19.2.128.5s-.261.474-.313.413.028-.228.071-.474S628.11,410.177,628.176,410.158Z" transform="translate(-548.942 -268.537)" fill="#eb996e"/>
      <path id="Trazado_145203" data-name="Trazado 145203" d="M624.678,391.59a2.6,2.6,0,0,1-.806-.038l-.863-.114a3.362,3.362,0,0,0-1.029-.052,2.563,2.563,0,0,0-.911.413c-.266.175-.474.375-.716.5a1.361,1.361,0,0,1-.773.266c0-.043.289-.123.678-.413a4.133,4.133,0,0,1,1.688-1.01,2.947,2.947,0,0,1,.579,0,2.8,2.8,0,0,1,.517.085l.858.161A2.845,2.845,0,0,1,624.678,391.59Z" transform="translate(-544.529 -258.534)" fill="#eb996e"/>
      <path id="Trazado_145204" data-name="Trazado 145204" d="M633.577,396.581a4.1,4.1,0,0,1,.214-.583,4.117,4.117,0,0,0,.156-2.845c-.095-.417-.289-.835-.394-1.333a4.18,4.18,0,0,1,.1-1.551,2.752,2.752,0,0,0-.275-1.522,7.128,7.128,0,0,0-.873-1.352c-.327-.413-.645-.816-.948-1.176a5.623,5.623,0,0,0-1.987-1.551,3.2,3.2,0,0,0-1.669-.256c-.4.057-.607.161-.617.142s.047-.038.147-.09a2.3,2.3,0,0,1,.474-.147,3.2,3.2,0,0,1,1.75.185,5.641,5.641,0,0,1,2.087,1.565c.332.365.654.764.986,1.176a7.467,7.467,0,0,1,.906,1.423,2.944,2.944,0,0,1,.289,1.66,4.27,4.27,0,0,0-.119,1.475c.09.474.28.9.37,1.323a4.741,4.741,0,0,1,.157,1.219,4.343,4.343,0,0,1-.422,1.707A2.376,2.376,0,0,1,633.577,396.581Z" transform="translate(-548.581 -254.927)" fill="#eb996e"/>
      <path id="Trazado_145205" data-name="Trazado 145205" d="M522.667,343.739l-33.087,5.254,1.47-17.267-18.4-3.557-2.238,25.566-.389,5.861a11.452,11.452,0,0,0,4.8,10.092h0a11.462,11.462,0,0,0,10.158,1.555l7.113-2.319,34.676-12.33" transform="translate(-465.883 -225.431)" fill="#ffbe9d"/>
      <path id="Trazado_145206" data-name="Trazado 145206" d="M601.077,352.245a.949.949,0,0,0-.779-1.092.928.928,0,0,0-.17-.013c-1.864,0-6.9,0-8.678.526-2.2.621-10.4,4.14-10.4,4.14l3.476,12.8,12.581.133s4.6-2.11,4.652-3.026a14.746,14.746,0,0,0-.114-1.712l1.389-.745c2.068-1.309.74-3.827.74-3.827a3.057,3.057,0,0,0,1.5-2.238,2.238,2.238,0,0,0-1.11-2.12s.569-2.03-.474-2.575-2.845.152-2.845.152A.733.733,0,0,0,601.077,352.245Z" transform="translate(-524.271 -237.508)" fill="#ffbe9d"/>
      <path id="Trazado_145207" data-name="Trazado 145207" d="M613.59,353.9a1.292,1.292,0,0,1-.389.137c-.251.071-.626.152-1.086.232-.949.166-2.21.3-3.628.474a29.368,29.368,0,0,0-3.595.55,6.683,6.683,0,0,0-1.423.474,1.345,1.345,0,0,1,.346-.223,6.091,6.091,0,0,1,1.043-.4,22.208,22.208,0,0,1,3.609-.626c1.423-.152,2.708-.261,3.628-.379S613.576,353.872,613.59,353.9Z" transform="translate(-536.058 -238.959)" fill="#eb996e"/>
      <path id="Trazado_145208" data-name="Trazado 145208" d="M622.56,359.33a3.024,3.024,0,0,1-.887.451,14.088,14.088,0,0,1-2.291.669c-.915.19-1.745.313-2.371.394a4.082,4.082,0,0,1-.982.076,29.65,29.65,0,0,1,3.282-.711,23.439,23.439,0,0,0,2.286-.588A5.635,5.635,0,0,1,622.56,359.33Z" transform="translate(-542.662 -241.814)" fill="#eb996e"/>
      <path id="Trazado_145209" data-name="Trazado 145209" d="M622.88,368.721a13.647,13.647,0,0,1-5.52,1.252c0-.076,1.252-.232,2.77-.579S622.88,368.65,622.88,368.721Z" transform="translate(-543.361 -246.747)" fill="#eb996e"/>
      <path id="Trazado_145210" data-name="Trazado 145210" d="M622.688,376.75a9.483,9.483,0,0,1-4.268,1.029Q620.557,377.278,622.688,376.75Z" transform="translate(-543.919 -250.973)" fill="#eb996e"/>
      <path id="Trazado_145211" data-name="Trazado 145211" d="M611.438,370.507c0,.028-.128.109-.384.133a1.424,1.424,0,0,1-.948-.261,1.456,1.456,0,0,1-.564-.811c-.062-.251-.028-.408,0-.408a2.056,2.056,0,0,0,.7,1.015A2.6,2.6,0,0,0,611.438,370.507Z" transform="translate(-539.232 -246.983)" fill="#eb996e"/>
      <path id="Trazado_145212" data-name="Trazado 145212" d="M611.5,379.041c0,.066-.474.095-.925-.289s-.474-.887-.394-.882.194.379.56.7S611.5,378.97,611.5,379.041Z" transform="translate(-539.567 -251.562)" fill="#eb996e"/>
      <path id="Trazado_145213" data-name="Trazado 145213" d="M608.977,362.569c.028.066-.318.175-.64-.071s-.313-.607-.242-.6.152.232.389.4S608.944,362.5,608.977,362.569Z" transform="translate(-538.469 -243.165)" fill="#eb996e"/>
      <path id="Trazado_145214" data-name="Trazado 145214" d="M581.06,355.709l.1-.057.3-.138,1.167-.517c1.024-.441,2.509-1.081,4.391-1.854.948-.379,1.973-.8,3.111-1.224a11.79,11.79,0,0,1,1.8-.56,19.05,19.05,0,0,1,2-.247c1.375-.109,2.845-.156,4.353-.175h1.74a1.245,1.245,0,0,1,.626.133,1.006,1.006,0,0,1,.536,1.143.35.35,0,0,1-.142.161l-.142.09-.285.133a4.65,4.65,0,0,1-.6.209.123.123,0,0,1-.147-.085.118.118,0,0,1,.082-.146h0a12.9,12.9,0,0,1,1.565-.351,5.7,5.7,0,0,1,1.66-.057,1.525,1.525,0,0,1,.816.351,1.491,1.491,0,0,1,.4.8,4.183,4.183,0,0,1-.109,1.731l-.062-.147a2.333,2.333,0,0,1,.7.617,2.471,2.471,0,0,1,.36,2.243,3.32,3.32,0,0,1-1.423,1.721l.047-.166a3.925,3.925,0,0,1,.4,2.191,2.519,2.519,0,0,1-1.186,1.793h0l-1.385.745.062-.119c.033.332.066.664.09.991a3.088,3.088,0,0,0,.024.474v.251a.659.659,0,0,1-.1.27,3.033,3.033,0,0,1-.716.683c-.256.19-.522.36-.783.522a34.334,34.334,0,0,1-3.125,1.636h-.043l-9.157-.142-2.532-.052-.664-.024a1.014,1.014,0,0,1-.228,0,1.222,1.222,0,0,1,.228,0h3.2l9.157.052h-.043a33.414,33.414,0,0,0,3.1-1.641c.256-.156.517-.327.763-.512a2.732,2.732,0,0,0,.654-.621.407.407,0,0,0,.071-.166v-.707c-.024-.322-.057-.65-.095-.977a.109.109,0,0,1,.062-.114l1.385-.749h0a2.281,2.281,0,0,0,1.077-1.627,3.726,3.726,0,0,0-.379-2.044.124.124,0,0,1,.052-.161,3.091,3.091,0,0,0,1.328-1.584,2.234,2.234,0,0,0-.327-2.02,2.048,2.048,0,0,0-.612-.541.128.128,0,0,1-.062-.142,4,4,0,0,0,.1-1.617,1.072,1.072,0,0,0-1.015-.948,5.391,5.391,0,0,0-1.584.057,11.871,11.871,0,0,0-1.536.337l-.062-.232a4.1,4.1,0,0,0,.56-.19c.09-.038.185-.081.266-.123s.166-.128.194-.119a1.012,1.012,0,0,0-.076-.5.874.874,0,0,0-.365-.365.987.987,0,0,0-.517-.1h-1.736c-1.518,0-2.973.057-4.344.157a19.644,19.644,0,0,0-1.978.232,12.3,12.3,0,0,0-1.778.541c-1.133.413-2.172.825-3.116,1.2l-4.415,1.788-1.181.474-.308.123Z" transform="translate(-524.276 -237.401)" fill="#eb996e"/>
      <path id="Trazado_145215" data-name="Trazado 145215" d="M507.054,372a13.077,13.077,0,0,0-2.442,2.11,12.869,12.869,0,0,0-1.631,2.788,2.677,2.677,0,0,1,.247-.948,7.457,7.457,0,0,1,2.954-3.552A2.744,2.744,0,0,1,507.054,372Z" transform="translate(-483.224 -248.476)" fill="#eb996e"/>
      <path id="Trazado_145216" data-name="Trazado 145216" d="M568.428,139.173a16.712,16.712,0,0,0-16.626-15.4h-.868c-9.333.526-14.1,8.745-13.316,18.063l1.608,37.345a1.693,1.693,0,0,0,.948,1.451l20.951,9.831-.607-19.6s8.977-1.375,9.105-10.348C569.661,156.184,569.054,147.249,568.428,139.173Z" transform="translate(-501.391 -117.963)" fill="#ffbe9d"/>
      <path id="Trazado_145217" data-name="Trazado 145217" d="M573.087,219.162A21.727,21.727,0,0,1,561.34,215.7s2.751,6.459,11.7,5.691Z" transform="translate(-513.908 -166.298)" fill="#eb996e"/>
      <path id="Trazado_145218" data-name="Trazado 145218" d="M593.166,166.713a1.286,1.286,0,0,1-1.238,1.29,1.219,1.219,0,0,1-1.315-1.113c0-.015,0-.029,0-.044a1.276,1.276,0,0,1,1.233-1.29,1.228,1.228,0,0,1,1.321,1.128Z" transform="translate(-529.297 -139.931)" fill="#263238"/>
      <path id="Trazado_145219" data-name="Trazado 145219" d="M592.986,164c-.161.166-1.129-.555-2.509-.555s-2.371.692-2.537.522c-.076-.076.085-.375.526-.7a3.534,3.534,0,0,1,2.034-.621,3.358,3.358,0,0,1,2,.65C592.919,163.622,593.062,163.926,592.986,164Z" transform="translate(-527.884 -138.405)" fill="#263238"/>
      <path id="Trazado_145220" data-name="Trazado 145220" d="M564.566,167.593a1.276,1.276,0,0,1-1.238,1.29,1.223,1.223,0,0,1-1.316-1.123c0-.011,0-.022,0-.034a1.28,1.28,0,0,1,1.238-1.29,1.224,1.224,0,0,1,1.316,1.123C564.565,167.57,564.566,167.581,564.566,167.593Z" transform="translate(-514.26 -140.394)" fill="#263238"/>
      <path id="Trazado_145221" data-name="Trazado 145221" d="M564.388,164.5c-.156.166-1.129-.55-2.5-.55s-2.371.688-2.542.517c-.071-.076.09-.375.531-.692a3.5,3.5,0,0,1,2.034-.626,3.4,3.4,0,0,1,1.992.65C564.331,164.117,564.478,164.421,564.388,164.5Z" transform="translate(-512.849 -138.668)" fill="#263238"/>
      <path id="Trazado_145222" data-name="Trazado 145222" d="M579.84,174.825a9.417,9.417,0,0,1,2.238-.4c.351-.038.688-.1.744-.346a1.772,1.772,0,0,0-.232-1.043l-1.034-2.684c-1.423-3.794-2.48-6.957-2.324-7.014s1.423,2.992,2.883,6.815l.991,2.7a2.029,2.029,0,0,1,.18,1.38.877.877,0,0,1-.583.512,2.446,2.446,0,0,1-.6.085A8.778,8.778,0,0,1,579.84,174.825Z" transform="translate(-523.307 -138.767)" fill="#263238"/>
      <path id="Trazado_145223" data-name="Trazado 145223" d="M571.744,189.56c.223,0,.223,1.48,1.5,2.547s2.869.9,2.883,1.11c0,.095-.356.294-1.029.308a3.725,3.725,0,0,1-2.409-.844,3.244,3.244,0,0,1-1.162-2.134C571.46,189.92,571.626,189.55,571.744,189.56Z" transform="translate(-519.257 -152.554)" fill="#263238"/>
      <path id="Trazado_145224" data-name="Trazado 145224" d="M563.821,153.435c-.138.375-1.513.194-3.13.389s-2.926.631-3.144.294c-.095-.161.133-.517.664-.877a5.274,5.274,0,0,1,2.328-.811,5.219,5.219,0,0,1,2.447.294C563.579,152.965,563.878,153.259,563.821,153.435Z" transform="translate(-511.902 -133.012)" fill="#263238"/>
      <path id="Trazado_145225" data-name="Trazado 145225" d="M592.344,155.5c-.247.308-1.2,0-2.338-.033s-2.106.2-2.328-.123c-.1-.156.057-.474.474-.768a3.386,3.386,0,0,1,3.756.123C592.316,155.021,592.449,155.344,592.344,155.5Z" transform="translate(-527.74 -133.893)" fill="#263238"/>
      <path id="Trazado_145226" data-name="Trazado 145226" d="M533.91,175.543c-.152-.066-6.165-1.835-5.975,4.3s6.3,4.681,6.307,4.505S533.91,175.543,533.91,175.543Z" transform="translate(-496.342 -145.034)" fill="#ffbe9d"/>
      <path id="Trazado_145227" data-name="Trazado 145227" d="M535.165,184.307c-.029,0-.1.076-.285.166a1.073,1.073,0,0,1-.8.043,2.654,2.654,0,0,1-1.294-2.338,3.581,3.581,0,0,1,.251-1.536,1.233,1.233,0,0,1,.783-.844.55.55,0,0,1,.64.27c.085.171.052.294.081.3s.133-.1.076-.356a.715.715,0,0,0-.256-.379.8.8,0,0,0-.593-.138,1.5,1.5,0,0,0-1.091.982,3.631,3.631,0,0,0-.318,1.721,2.779,2.779,0,0,0,1.636,2.6,1.137,1.137,0,0,0,.948-.194C535.156,184.473,535.184,184.317,535.165,184.307Z" transform="translate(-498.669 -147.259)" fill="#eb996e"/>
      <path id="Trazado_145228" data-name="Trazado 145228" d="M540.241,128.607l25.57.564a11.654,11.654,0,0,0-3.756-4.344,19.951,19.951,0,0,0-11.581-4.168c-4.169-.076-12.662,5.008-15.683,7.882-2.419,2.3-2.4,4.292-2.4,4.292-.384,3.32,1.47,7.085,2.21,10.343.379,1.679,1.115,6.758,1.115,6.758h0c1.423,0,1.93-1.124,1.717-2.518l-.261-5.468a8.25,8.25,0,0,0,2.518-9.636C539.34,131.813,538.562,129.537,540.241,128.607Z" transform="translate(-498.661 -116.327)" fill="#263238"/>
      <path id="Trazado_145229" data-name="Trazado 145229" d="M560.156,177.935a.156.156,0,0,1-.161-.152h0a.161.161,0,0,1,.114-.194.166.166,0,0,1,.185.138.161.161,0,0,1-.106.2A.144.144,0,0,1,560.156,177.935Z" transform="translate(-513.198 -146.259)" fill="#eb996e"/>
      <path id="Trazado_145230" data-name="Trazado 145230" d="M565.683,176.654a.19.19,0,0,1-.19-.156.18.18,0,0,1,.114-.218.175.175,0,0,1,.185.161A.171.171,0,0,1,565.683,176.654Z" transform="translate(-516.088 -145.571)" fill="#eb996e"/>
      <path id="Trazado_145231" data-name="Trazado 145231" d="M569.431,176.453c-.085,0-.166-.09-.185-.228s.038-.256.123-.266.161.09.18.228S569.512,176.453,569.431,176.453Z" transform="translate(-518.063 -145.403)" fill="#eb996e"/>
      <path id="Trazado_145232" data-name="Trazado 145232" d="M562.892,181.594c-.081,0-.152-.043-.152-.095s.071-.1.152-.1.152.047.152.1S562.977,181.594,562.892,181.594Z" transform="translate(-514.644 -148.264)" fill="#eb996e"/>
      <path id="Trazado_145233" data-name="Trazado 145233" d="M567.954,180.261a.171.171,0,0,1-.028-.341h0a.161.161,0,0,1,.166.157h0A.166.166,0,0,1,567.954,180.261Z" transform="translate(-517.288 -147.485)" fill="#eb996e"/>
      <path id="Trazado_145234" data-name="Trazado 145234" d="M594.465,177.155a.157.157,0,0,1-.179-.13v-.008a.154.154,0,1,1,.3-.062.161.161,0,0,1-.113.2Z" transform="translate(-531.226 -145.854)" fill="#eb996e"/>
      <path id="Trazado_145235" data-name="Trazado 145235" d="M598.177,176.77a.194.194,0,1,1,.124-.245.2.2,0,0,1,.009.041A.176.176,0,0,1,598.177,176.77Z" transform="translate(-533.142 -145.63)" fill="#eb996e"/>
      <path id="Trazado_145236" data-name="Trazado 145236" d="M591.132,177.306a.147.147,0,0,1-.175-.1.153.153,0,0,1,.3-.062A.147.147,0,0,1,591.132,177.306Z" transform="translate(-529.478 -145.963)" fill="#eb996e"/>
      <path id="Trazado_145237" data-name="Trazado 145237" d="M593.821,181.043a.18.18,0,1,1,.052-.249.232.232,0,0,1,.014.027A.166.166,0,0,1,593.821,181.043Z" transform="translate(-530.839 -147.902)" fill="#eb996e"/>
      <path id="Trazado_145238" data-name="Trazado 145238" d="M597.232,180.5a.143.143,0,0,1-.114-.161.157.157,0,0,1,.294.081A.142.142,0,0,1,597.232,180.5Z" transform="translate(-532.718 -147.663)" fill="#eb996e"/>
      <path id="Trazado_145239" data-name="Trazado 145239" d="M536.925,124.081a7.559,7.559,0,0,1,7.554-9.4,24.379,24.379,0,0,0,3.566.256c2.215-.242,3.922-2.015,5.975-2.879a7.8,7.8,0,0,1,9.2,2.76c.778,1.162,1.285,2.6,2.48,3.32,1.029.631,2.328.579,3.486.948A5.685,5.685,0,0,1,573,124.721a6.7,6.7,0,0,1-4.083,5.634,8.194,8.194,0,0,1-7.066-.474c-1.93-1.077-3.656-2.907-5.866-2.845-2.286.066-4.268,2.219-6.525,1.774a6.334,6.334,0,0,1-2.945-1.973,5.126,5.126,0,0,0-3.049-1.755c-1.2-.071-1.821,1.574-1.39,2.694l-5.155-3.694" transform="translate(-500.95 -111.526)" fill="#263238"/>
      <path id="Trazado_145240" data-name="Trazado 145240" d="M570.965,127.726a.782.782,0,0,1-.043.09,2.512,2.512,0,0,1-.147.247,4.28,4.28,0,0,1-.735.835,4.59,4.59,0,0,1-1.522.882,4.353,4.353,0,0,1-2.319.138,4.614,4.614,0,0,1-2.447-1.394,30.057,30.057,0,0,1-1.764-2.694,3.558,3.558,0,0,0-1.238-1.119,3.623,3.623,0,0,0-1.7-.375,3.852,3.852,0,0,0-1.74.474,3.27,3.27,0,0,0-1.28,1.318c-.308.564-.531,1.181-.9,1.726a2.115,2.115,0,0,1-1.641,1,3.194,3.194,0,0,1-1.783-.512,6.732,6.732,0,0,1-1.356-1.124,5.7,5.7,0,0,0-2.537-1.807,3.227,3.227,0,0,0-2.57.6,4.407,4.407,0,0,0-1.423,1.745,7.324,7.324,0,0,0-.531,1.646c-.095.474-.137.835-.166,1.086a2.906,2.906,0,0,1-.057.384.349.349,0,0,1,0-.1v-.289a8.92,8.92,0,0,1,.128-1.1,7.009,7.009,0,0,1,.474-1.684,4.53,4.53,0,0,1,1.423-1.831,3.376,3.376,0,0,1,2.717-.659,5.778,5.778,0,0,1,2.646,1.845,6.782,6.782,0,0,0,1.318,1.081,2.96,2.96,0,0,0,1.65.474,1.9,1.9,0,0,0,1.451-.892c.346-.512.569-1.124.887-1.707a3.506,3.506,0,0,1,1.38-1.423,4.105,4.105,0,0,1,1.854-.5,3.877,3.877,0,0,1,1.812.408,3.794,3.794,0,0,1,1.314,1.2,31.355,31.355,0,0,0,1.731,2.694,4.446,4.446,0,0,0,2.333,1.356,4.184,4.184,0,0,0,2.238-.1,4.552,4.552,0,0,0,1.5-.82A5.727,5.727,0,0,0,570.965,127.726Z" transform="translate(-504.298 -118.131)" fill="#455a64"/>
      <path id="Trazado_145241" data-name="Trazado 145241" d="M601.4,132a1.43,1.43,0,0,1,.1.474,3.986,3.986,0,0,1-.128,1.371,4.742,4.742,0,0,1-.948,1.8,5.571,5.571,0,0,1-2.02,1.475,8.283,8.283,0,0,1-4.462.5,12.218,12.218,0,0,1-1.337-.266,1.631,1.631,0,0,1-.474-.161c0-.038.7.133,1.835.251a8.623,8.623,0,0,0,4.339-.555,5.518,5.518,0,0,0,1.949-1.394,4.786,4.786,0,0,0,.948-1.707A5.434,5.434,0,0,0,601.4,132Z" transform="translate(-530.096 -122.291)" fill="#455a64"/>
      <path id="Trazado_145242" data-name="Trazado 145242" d="M519.64,331.344A5.127,5.127,0,0,0,520.712,334a3.46,3.46,0,0,0,2.561,1.361,3.908,3.908,0,0,0,3.448-1.731,9.746,9.746,0,0,0,.474-7.493,4.328,4.328,0,0,0-3.547-2.879,3.923,3.923,0,0,0-3.841,2.988" transform="translate(-491.983 -222.848)" fill="#e0e0e0"/>
      <path id="Trazado_145243" data-name="Trazado 145243" d="M519.783,326.143a3.188,3.188,0,0,1,.389-1.024,4.109,4.109,0,0,1,.783-1.029,3.61,3.61,0,0,1,1.475-.863,3.736,3.736,0,0,1,.991-.161,2.979,2.979,0,0,1,1.086.142,4.267,4.267,0,0,1,1.94,1.389,5.64,5.64,0,0,1,1.138,2.371,10.2,10.2,0,0,1,.213,2.812,7.77,7.77,0,0,1-1.214,4.093,3.638,3.638,0,0,1-1.574,1.186,4.215,4.215,0,0,1-1.778.3h0a2.7,2.7,0,0,1-1.28-.313,4.281,4.281,0,0,1-.948-.673,4.739,4.739,0,0,1-1.048-1.555,4.851,4.851,0,0,1-.332-1.152,2.473,2.473,0,0,1-.028-.313.249.249,0,0,1,0-.109,6.2,6.2,0,0,0,.474,1.527,4.9,4.9,0,0,0,1.053,1.484,4.183,4.183,0,0,0,.948.626,2.513,2.513,0,0,0,1.186.28h0a3.794,3.794,0,0,0,3.154-1.423,7.687,7.687,0,0,0,1.152-3.965,7.194,7.194,0,0,0-1.28-5.027,4.146,4.146,0,0,0-1.826-1.337,2.941,2.941,0,0,0-1.02-.147,3.565,3.565,0,0,0-.948.138,3.479,3.479,0,0,0-1.423.8,4.207,4.207,0,0,0-.806.967A9.563,9.563,0,0,0,519.783,326.143Z" transform="translate(-491.955 -222.745)" fill="#263238"/>
      <path id="Trazado_145244" data-name="Trazado 145244" d="M517.3,331.545a5.14,5.14,0,0,0,1.072,2.656,3.46,3.46,0,0,0,2.561,1.361,3.908,3.908,0,0,0,3.448-1.731,9.769,9.769,0,0,0,.474-7.493,4.314,4.314,0,0,0-3.543-2.879,3.921,3.921,0,0,0-3.841,2.983" transform="translate(-490.753 -222.955)" fill="#e0e0e0"/>
      <path id="Trazado_145245" data-name="Trazado 145245" d="M517.463,326.338a3.189,3.189,0,0,1,.389-1.02,3.991,3.991,0,0,1,.783-1.029,3.643,3.643,0,0,1,2.466-1.024,2.979,2.979,0,0,1,1.086.142,4.24,4.24,0,0,1,1.94,1.389,5.638,5.638,0,0,1,1.138,2.371,10.037,10.037,0,0,1,.209,2.812,7.735,7.735,0,0,1-1.209,4.093,3.637,3.637,0,0,1-1.574,1.186,4.215,4.215,0,0,1-1.778.3h0a2.691,2.691,0,0,1-1.28-.318,3.993,3.993,0,0,1-.948-.669,4.71,4.71,0,0,1-1.048-1.56,4.537,4.537,0,0,1-.332-1.148,2.47,2.47,0,0,1-.029-.313.249.249,0,0,1,0-.109,6.212,6.212,0,0,0,.474,1.522,4.772,4.772,0,0,0,1.053,1.489,4.183,4.183,0,0,0,.948.626,2.573,2.573,0,0,0,1.186.28h0a3.794,3.794,0,0,0,3.154-1.423,7.654,7.654,0,0,0,1.148-3.965,7.146,7.146,0,0,0-1.28-5.027,4.067,4.067,0,0,0-1.821-1.337,2.942,2.942,0,0,0-1.02-.147,3.628,3.628,0,0,0-.948.138,3.493,3.493,0,0,0-1.423.8,4.19,4.19,0,0,0-.8.972A10.4,10.4,0,0,0,517.463,326.338Z" transform="translate(-490.735 -222.85)" fill="#263238"/>
      <path id="Trazado_145246" data-name="Trazado 145246" d="M518.391,328.609a2.437,2.437,0,0,0-2.547,1.465,4.231,4.231,0,0,0,0,3.1,3.916,3.916,0,0,0,.792,1.394,2.108,2.108,0,0,0,1.423.688,2.466,2.466,0,0,0,1.973-1.157,4.429,4.429,0,0,0,.669-3.637c-.218-.825-.82-1.665-1.669-1.688" transform="translate(-489.833 -225.652)" fill="#e0e0e0"/>
      <path id="Trazado_145247" data-name="Trazado 145247" d="M518.884,328.768h.185a1.287,1.287,0,0,1,.517.176,2.514,2.514,0,0,1,1.086,1.631,4.5,4.5,0,0,1-.294,2.9,3.8,3.8,0,0,1-1.062,1.394,2.063,2.063,0,0,1-1.831.441,2.588,2.588,0,0,1-1.465-1.2,5.342,5.342,0,0,1-.607-1.641,3.647,3.647,0,0,1,.474-2.845,2.547,2.547,0,0,1,1.655-1.053,1.844,1.844,0,0,1,.541,0c.119.024.18.043.18.052a3.752,3.752,0,0,0-.707.043,2.528,2.528,0,0,0-1.527,1.058,3.514,3.514,0,0,0-.394,2.717,5.2,5.2,0,0,0,.593,1.56,2.344,2.344,0,0,0,1.323,1.081,1.807,1.807,0,0,0,1.612-.389,3.569,3.569,0,0,0,1.005-1.3,4.382,4.382,0,0,0,.332-2.769,2.508,2.508,0,0,0-.948-1.589A2.005,2.005,0,0,0,518.884,328.768Z" transform="translate(-489.705 -225.635)" fill="#263238"/>
      <path id="Trazado_145248" data-name="Trazado 145248" d="M523.82,343.733c-.033,0-.085-.152-.251-.341a1.746,1.746,0,0,0-.806-.517,4.4,4.4,0,0,0-1-.157c-.266,0-.432-.043-.436-.076s.161-.071.432-.1a2.783,2.783,0,0,1,1.072.095,1.549,1.549,0,0,1,.877.654C523.862,343.538,523.848,343.728,523.82,343.733Z" transform="translate(-492.871 -232.98)" fill="#263238"/>
      <path id="Trazado_145249" data-name="Trazado 145249" d="M524.288,327.27a.993.993,0,0,1-.294.341,2.281,2.281,0,0,1-1,.436,2.332,2.332,0,0,1-1.086-.057c-.27-.09-.413-.194-.4-.223a5.6,5.6,0,0,0,1.423.038A5.918,5.918,0,0,0,524.288,327.27Z" transform="translate(-492.965 -224.958)" fill="#263238"/>
    </g>
    <g id="freepik--character-1--inject-8" transform="translate(47.962 81.382)">
      <path id="Trazado_145250" data-name="Trazado 145250" d="M212.922,136.484c.057-2.068-1.85-3.661-3.794-4.42s-4.059-1.043-5.776-2.2c-1.518-1.024-2.537-2.618-3.822-3.917a12.724,12.724,0,0,0-21.4,5.838c-.735,2.94-.232,6.416,2.087,8.375,2.694,2.267,6.682,1.764,10.13,1.058s7.355-1.423,10.234.621c1.736,1.224,2.732,3.211,3.794,5.051s2.371,3.713,4.4,4.406,4.742-.5,4.813-2.622" transform="translate(-121.443 -122.165)" fill="#263238"/>
      <path id="Trazado_145251" data-name="Trazado 145251" d="M205.573,144.505c-.228,1.731,1.024,3.282,2.272,4.505s2.656,2.518,2.879,4.268c.256,2.025-1.224,4.017-.792,6.013.27,1.266,1.257,2.238,1.854,3.391a7.227,7.227,0,0,1,.365,5.307c-.512,1.745-1.333,5.639-2.547,6.995a27.976,27.976,0,0,1-13.587,8.1,52.7,52.7,0,0,1-15.009.825c-4.107-.251-8.835-.062-12.259-5.714-1.774-2.931-2.651-6.819-3.59-10.111-.816-2.845-1.518-5.866-.673-8.693.474-1.641,1.484-3.106,1.968-4.742.607-2.058.384-4.268.626-6.388a14.658,14.658,0,0,1,20.866-11.576" transform="translate(-114.232 -129.052)" fill="#263238"/>
      <path id="Trazado_145252" data-name="Trazado 145252" d="M174.075,155.833c.384-5.895,4.306-13.122,10.182-12.486l18.334,4.676a3.467,3.467,0,0,1,3.087,3.514l-2.063,44.236.128.024s-4.178,12.477-16.3,8.669c-2.4-.759-3.5-3.386-3.979-6.094h-.123v-.948a29.031,29.031,0,0,1-.071-6.075h0c-.033-3.571-.028-5.032-.033-5s-7.531-1.271-9.067-11.1C173.382,170.4,173.648,162.382,174.075,155.833Z" transform="translate(-119.259 -133.281)" fill="#ffbe9d"/>
      <path id="Trazado_145253" data-name="Trazado 145253" d="M180.76,180.949a1.256,1.256,0,0,0,1.209,1.276,1.209,1.209,0,0,0,1.3-1.108l0-.025a1.262,1.262,0,0,0-1.214-1.276,1.2,1.2,0,0,0-1.3,1.1Z" transform="translate(-122.989 -152.474)" fill="#263238"/>
      <path id="Trazado_145254" data-name="Trazado 145254" d="M178.147,177.058c.157.166,1.114-.541,2.471-.536s2.371.688,2.5.522c.071-.071-.09-.37-.522-.683a3.416,3.416,0,0,0-2-.621,3.322,3.322,0,0,0-1.968.626C178.213,176.688,178.066,176.982,178.147,177.058Z" transform="translate(-121.604 -150.333)" fill="#263238"/>
      <path id="Trazado_145255" data-name="Trazado 145255" d="M208.87,180.949a1.261,1.261,0,0,0,1.214,1.276,1.2,1.2,0,0,0,1.3-1.1l0-.029a1.257,1.257,0,0,0-1.209-1.276,1.2,1.2,0,0,0-1.3,1.1C208.871,180.925,208.87,180.937,208.87,180.949Z" transform="translate(-137.769 -152.473)" fill="#263238"/>
      <path id="Trazado_145256" data-name="Trazado 145256" d="M206.268,177.648c.157.166,1.114-.536,2.471-.531s2.347.688,2.494.522c.071-.076-.085-.37-.522-.688a3.477,3.477,0,0,0-2-.621,3.32,3.32,0,0,0-1.963.631C206.335,177.278,206.193,177.6,206.268,177.648Z" transform="translate(-136.391 -150.643)" fill="#263238"/>
      <path id="Trazado_145257" data-name="Trazado 145257" d="M192.071,187.775a9.244,9.244,0,0,0-2.2-.4c-.346-.033-.673-.1-.735-.341a1.753,1.753,0,0,1,.237-1.024l1.029-2.637a46.456,46.456,0,0,0,2.314-6.891,45.692,45.692,0,0,0-2.845,6.691q-.521,1.385-.986,2.651a1.991,1.991,0,0,0-.185,1.356.873.873,0,0,0,.569.507,2.417,2.417,0,0,0,.588.085A8.457,8.457,0,0,0,192.071,187.775Z" transform="translate(-127.139 -150.721)" fill="#263238"/>
      <path id="Trazado_145258" data-name="Trazado 145258" d="M193.81,230.286a24.983,24.983,0,0,0,13.169-3.486s-3.32,6.8-13.16,5.857Z" transform="translate(-129.851 -177.179)" fill="#eb996e"/>
      <path id="Trazado_145259" data-name="Trazado 145259" d="M196.91,206.182a2.433,2.433,0,0,1,2.191-.9,2.219,2.219,0,0,1,1.541.83,1.422,1.422,0,0,1,.1,1.612,1.622,1.622,0,0,1-1.778.446,5.154,5.154,0,0,1-1.731-1.039,1.4,1.4,0,0,1-.384-.4.474.474,0,0,1,0-.507" transform="translate(-131.41 -165.856)" fill="#eb996e"/>
      <path id="Trazado_145260" data-name="Trazado 145260" d="M199.464,202.3c-.218,0-.223,1.461-1.489,2.5s-2.845.877-2.845,1.086c0,.09.351.285,1.01.3a3.657,3.657,0,0,0,2.371-.82,3.192,3.192,0,0,0,1.152-2.1C199.73,202.655,199.569,202.29,199.464,202.3Z" transform="translate(-130.545 -164.297)" fill="#263238"/>
      <path id="Trazado_145261" data-name="Trazado 145261" d="M204.993,172.978c.133.37,1.489.2,3.078.394s2.879.631,3.092.3c.095-.156-.128-.507-.65-.863a5.064,5.064,0,0,0-2.286-.806,5.148,5.148,0,0,0-2.409.275C205.235,172.518,204.941,172.8,204.993,172.978Z" transform="translate(-135.728 -148.349)" fill="#263238"/>
      <path id="Trazado_145262" data-name="Trazado 145262" d="M179.2,168.71c.242.308,1.176,0,2.3,0s2.072.209,2.3-.109c.095-.156-.057-.474-.474-.759a3.32,3.32,0,0,0-3.7.1C179.226,168.245,179.084,168.563,179.2,168.71Z" transform="translate(-122.148 -145.911)" fill="#263238"/>
      <path id="Trazado_145263" data-name="Trazado 145263" d="M218.676,178.038a8.726,8.726,0,0,1-10.381-9.651c.3-2.414,1.608-4.87.768-7.156-1.1-3.021-5.34-3.95-6.464-6.966-.654-1.75-.066-3.794-.806-5.515-.7-1.617-2.395-2.547-4.05-3.144a16.931,16.931,0,0,1-4.813-2.087c-1.389-1.076-2.253-3.116-1.356-4.628a92.949,92.949,0,0,1,21.473,5.217,8.258,8.258,0,0,1,4.24,2.746c1.005,1.508.948,3.457.873,5.269l-1.238,26.471" transform="translate(-128.483 -130.958)" fill="#263238"/>
      <path id="Trazado_145264" data-name="Trazado 145264" d="M217.361,175.878a1.122,1.122,0,0,0,.161-.1l.436-.332c.379-.3.948-.74,1.627-1.352a16.8,16.8,0,0,0,2.309-2.428,9.068,9.068,0,0,0,1.84-4.05,6.165,6.165,0,0,0-1.266-5.169,19.769,19.769,0,0,0-2.291-1.954,5.316,5.316,0,0,1-1.788-2.428c-.726-2-.4-4.32-.683-6.691a13.308,13.308,0,0,0-2.788-6.772,9.152,9.152,0,0,0-2.912-2.371,17.8,17.8,0,0,0-3.438-1.157,8.017,8.017,0,0,1-3.021-1.489,11.977,11.977,0,0,1-2.191-2.414c-1.233-1.755-2.148-3.623-3.32-5.183a11.107,11.107,0,0,0-1.935-2.053,7.427,7.427,0,0,0-2.3-1.252,4.9,4.9,0,0,0-4.368.436,4.026,4.026,0,0,0-1.551,2.94,2.95,2.95,0,0,0,.593,2.025,1.888,1.888,0,0,0,.4.384.681.681,0,0,0,.161.1,1.071,1.071,0,0,0-.133-.138,2.181,2.181,0,0,1-.356-.4,2.893,2.893,0,0,1-.474-1.959,3.856,3.856,0,0,1,1.522-2.76,4.647,4.647,0,0,1,4.126-.341,7.118,7.118,0,0,1,2.186,1.219,11.3,11.3,0,0,1,1.859,2.011c1.138,1.532,2.034,3.4,3.286,5.217a12.2,12.2,0,0,0,2.257,2.509,8.324,8.324,0,0,0,3.116,1.541,17.452,17.452,0,0,1,3.362,1.138,8.765,8.765,0,0,1,2.779,2.276,12.893,12.893,0,0,1,2.713,6.544c.289,2.291-.043,4.647.73,6.777a5.753,5.753,0,0,0,1.9,2.594,20.048,20.048,0,0,1,2.262,1.9,5.847,5.847,0,0,1,1.233,4.885,8.885,8.885,0,0,1-1.726,3.95,18.177,18.177,0,0,1-2.234,2.452c-.669.626-1.209,1.086-1.57,1.423A5.816,5.816,0,0,0,217.361,175.878Z" transform="translate(-127.784 -125.423)" fill="#455a64"/>
      <path id="Trazado_145265" data-name="Trazado 145265" d="M245.706,230.19c2.02-1.954,5.468-.256,7.166,1.982s2.9,5.131,5.473,6.26,5.918.156,8.062,1.949c2.978,2.475,1.3,8.209,4.529,10.362,1.276.854,2.964.825,4.33,1.527,3.22,1.66,3.182,6.2,2.684,9.793-.678,5.051-1.446,10.267-4.225,14.535s-8.19,7.251-13,5.61c-4.624-1.579-7-6.568-8.882-11.078q-3.9-9.38-7.806-18.718c-1.5-3.609-3.026-7.275-3.514-11.154s.166-8.062,2.637-11.106" transform="translate(-154.332 -178.511)" fill="#263238"/>
      <path id="Trazado_145266" data-name="Trazado 145266" d="M248.409,222.034c1.465-.175,2.589,1.622,2.2,3.049a4.6,4.6,0,0,1-3.154,2.845,4.7,4.7,0,0,1-2.433.28,2.372,2.372,0,0,1-1.845-1.484,1.394,1.394,0,0,1,.673-1.845c.948-.6,1.532-1.076,2.3-1.5,1.167-.64,1.1-.726,2.262-1.371" transform="translate(-155.74 -174.661)" fill="#7e5ee3"/>
      <path id="Trazado_145267" data-name="Trazado 145267" d="M179.35,249.1l5.7-4.32,21.487-1.375.863,2.883-6.99,43.61,5.515,52.032H175.95Z" transform="translate(-120.461 -185.907)" fill="#00bcd4"/>
      <g id="Grupo_73246" data-name="Grupo 73246" transform="translate(56.822 134.764)" opacity="0.3">
        <path id="Trazado_145268" data-name="Trazado 145268" d="M203.832,409.138c-.688-.735-1.812-1.74-2.812-1.764-7.18-.157-14.507-.873-21.686-1.034L178.76,427.6c1.717-3.026,3.343-6.165,3.794-9.627.2-1.508.474-3.32,1.826-3.955a4.082,4.082,0,0,1,2.532-.052,60.1,60.1,0,0,0,7.806,1.347,12.51,12.51,0,0,0,7.616-1.665,4.67,4.67,0,0,0,1.821-1.968A2.413,2.413,0,0,0,203.832,409.138Z" transform="translate(-178.76 -406.34)"/>
      </g>
      <path id="Trazado_145269" data-name="Trazado 145269" d="M192.021,245.952l-.669-6.236a1.982,1.982,0,0,1,1.764-2.179l.028,0,19.775-1.788a.948.948,0,0,1,1.018.874l0,.027.223,7.422-5.729,9.717-5.885,1.873h-7.2l-4.14-4.42Z" transform="translate(-128.484 -181.882)" fill="#00bcd4"/>
      <path id="Trazado_145270" data-name="Trazado 145270" d="M211.613,247.963a6.715,6.715,0,0,1-.792-.081,14.251,14.251,0,0,0-2.153-.038,20.885,20.885,0,0,0-3.168.474c-1.181.247-2.466.593-3.827.925a24.861,24.861,0,0,1-3.893.692,10.062,10.062,0,0,1-3.229-.218,6.7,6.7,0,0,1-2.011-.835,4.819,4.819,0,0,1-.474-.351c-.1-.085-.156-.138-.147-.142s.232.157.678.408a7.361,7.361,0,0,0,2.006.749,10.224,10.224,0,0,0,3.168.161,26.2,26.2,0,0,0,3.855-.707c1.356-.327,2.646-.669,3.837-.906a19.093,19.093,0,0,1,3.206-.408,11.487,11.487,0,0,1,2.177.114q.384.066.583.114C211.547,247.935,211.618,247.954,211.613,247.963Z" transform="translate(-128.856 -188.156)" fill="#263238"/>
      <g id="Grupo_73247" data-name="Grupo 73247" transform="translate(63.653 59.626)" opacity="0.3">
        <path id="Trazado_145271" data-name="Trazado 145271" d="M193.518,249.06a4.255,4.255,0,0,0,.531,4.372,3.852,3.852,0,0,0,3.519.892,11.1,11.1,0,0,0,3.438-1.546c2.722-1.617,5.492-3.3,8.584-3.984a1.1,1.1,0,0,0,.555-.232.365.365,0,0,0,.02-.516l-.02-.02a.518.518,0,0,0-.256-.071c-2.736-.275-5.454.474-8.133,1.1s-5.548,1.029-8.133.095" transform="translate(-193.165 -247.897)"/>
      </g>
      <path id="Trazado_145272" data-name="Trazado 145272" d="M200.546,239.092a1.821,1.821,0,0,0-.678.645,4.572,4.572,0,0,0-.27,2.276c.052,1.845.356,3.32.285,3.32a3.224,3.224,0,0,1-.27-.948,14.966,14.966,0,0,1-.261-2.371,10.993,10.993,0,0,1,.028-1.323,2.284,2.284,0,0,1,.341-1.048,1.369,1.369,0,0,1,.555-.5C200.442,239.077,200.541,239.077,200.546,239.092Z" transform="translate(-132.76 -183.638)" fill="#263238"/>
      <path id="Trazado_145273" data-name="Trazado 145273" d="M211.956,243.926a28.593,28.593,0,0,0-.142-3.016c-.228-1.655-.778-2.912-.7-2.94a2.6,2.6,0,0,1,.4.8,9.8,9.8,0,0,1,.545,2.1,9.617,9.617,0,0,1,.062,2.172A2.657,2.657,0,0,1,211.956,243.926Z" transform="translate(-138.944 -183.052)" fill="#263238"/>
      <path id="Trazado_145274" data-name="Trazado 145274" d="M225.93,236.86a1.949,1.949,0,0,1,.375.735,5.192,5.192,0,0,1,.261,1.978,5.11,5.11,0,0,1-.522,1.93,1.894,1.894,0,0,1-.474.678,6.544,6.544,0,0,0,.356-5.321Z" transform="translate(-146.549 -182.468)" fill="#263238"/>
      <path id="Trazado_145275" data-name="Trazado 145275" d="M145.195,261.33A22.423,22.423,0,0,0,136.658,274c-1.394,6.412-5.217,40.281-5.217,40.281l-6.682,13,4.363,10.376h0a15.952,15.952,0,0,0,10.48-2.992l2.935-2.134,5.382-7.981Z" transform="translate(-93.546 -195.334)" fill="#ebebeb"/>
      <path id="Trazado_145276" data-name="Trazado 145276" d="M169.836,248.71l-11.429,5.985-2.7,8.863-2.4,25.7,4.524,30.128-7.939,25.243,13.691.1.327-14.8,1.366-47.9,1.342-30.512Z" transform="translate(-106.759 -188.699)" fill="#ebebeb"/>
      <path id="Trazado_145277" data-name="Trazado 145277" d="M175.841,291.59a2.6,2.6,0,0,1-.213-.36l-.569-1.048c-.237-.474-.474-1.053-.764-1.726-.138-.341-.256-.716-.394-1.11s-.289-.811-.408-1.257a47.338,47.338,0,0,1-1.636-14.331c0-.436.033-.868.062-1.3v-.076l.071-.028,2-.844-.028.209-2-1.608-.043-.033v-.047a17.3,17.3,0,0,1,.911-5.714c.5-1.674,1.053-3.116,1.536-4.3s.906-2.11,1.2-2.736c.152-.318.27-.56.351-.716a1.62,1.62,0,0,1,.138-.242,1.153,1.153,0,0,1-.1.256l-.318.735c-.275.635-.673,1.57-1.138,2.76s-1,2.632-1.48,4.3a17.353,17.353,0,0,0-.868,5.639l-.047-.081,2.006,1.6.156.128-.185.081-2,.844.076-.1c-.028.422-.047.854-.062,1.29a48.942,48.942,0,0,0,1.56,14.27c.109.451.256.863.384,1.257s.242.773.379,1.114c.28.673.474,1.266.721,1.731l.522,1.067A3.155,3.155,0,0,1,175.841,291.59Z" transform="translate(-118.298 -191.648)" fill="#263238"/>
      <path id="Trazado_145278" data-name="Trazado 145278" d="M158.736,328.988a3.475,3.475,0,0,1-.109-.37q-.1-.4-.27-1.081c-.119-.474-.251-1.043-.384-1.712s-.308-1.423-.441-2.291-.313-1.783-.441-2.788-.256-2.087-.375-3.22c-.209-2.276-.346-4.785-.346-7.422s.157-5.145.37-7.417c.128-1.133.237-2.215.394-3.22s.294-1.94.446-2.788.313-1.612.474-2.286.275-1.247.394-1.712.2-.811.275-1.077a2.775,2.775,0,0,1,.109-.375,2.2,2.2,0,0,1-.062.384l-.228,1.086c-.1.474-.232,1.048-.351,1.721s-.289,1.423-.417,2.291-.294,1.778-.413,2.784-.251,2.082-.37,3.211c-.2,2.272-.341,4.771-.351,7.4s.133,5.126.322,7.4c.119,1.129.213,2.21.356,3.21s.27,1.94.408,2.788.285,1.617.4,2.291.242,1.252.346,1.721.171.816.223,1.086A1.834,1.834,0,0,1,158.736,328.988Z" transform="translate(-110.166 -211.054)" fill="#263238"/>
      <path id="Trazado_145279" data-name="Trazado 145279" d="M161.818,419.63a4.881,4.881,0,0,1-.555,1.152,18.607,18.607,0,0,1-1.75,2.537,18.333,18.333,0,0,1-2.144,2.215,5.14,5.14,0,0,1-1.02.773,9.086,9.086,0,0,1,.9-.9,25.847,25.847,0,0,0,3.865-4.714A9.142,9.142,0,0,1,161.818,419.63Z" transform="translate(-110.155 -278.564)" fill="#263238"/>
      <path id="Trazado_145280" data-name="Trazado 145280" d="M243.481,258.991a15.73,15.73,0,0,1,9.646,11.192c3.742,16.484,10.139,38.412,10.243,45.493.123,9.01-3.794,15.175-8.958,16.314-4.069.9-40.935-1.119-40.935-1.119l-1.726-13.753,29.876-4.4-4.088-22.8,4.045-31.641Z" transform="translate(-139.283 -193.73)" fill="#ebebeb"/>
      <path id="Trazado_145281" data-name="Trazado 145281" d="M248.918,248.834l-8.256-3.372-8.7-5.1-.052,1.494h0a8.756,8.756,0,0,1,1.048,6.051L225.7,285.682l1.641,27.6,3.372,27.031h26.182L244.873,312.03l4.244-38.123Z" transform="translate(-146.618 -184.308)" fill="#ebebeb"/>
      <path id="Trazado_145282" data-name="Trazado 145282" d="M249.138,392.3l-.18.024-.526.052c-.474.047-1.152.043-2.044.066-1.774,0-4.353-.038-7.564-.142-6.416-.213-15.346-.645-25.433-1.228h-.1v-.1c-.2-1.636-.422-3.362-.64-5.112-.375-2.964-.735-5.857-1.081-8.621v-.119h.114l22.8-3.32,6.7-.948,1.8-.242.474-.062h.161l-.157.033-.474.081-1.793.285-6.682,1.02-22.763,3.4.1-.138c.351,2.77.716,5.658,1.086,8.622.223,1.755.436,3.481.64,5.117l-.114-.1c10.082.588,19.017,1.048,25.428,1.309,3.206.123,5.781.194,7.554.218.887,0,1.579,0,2.039-.028l.526-.028Z" transform="translate(-139.188 -253.805)" fill="#263238"/>
      <path id="Trazado_145283" data-name="Trazado 145283" d="M265.594,320.08a.972.972,0,0,1,.066.256c.038.194.085.432.142.73.123.669.289,1.584.474,2.7.4,2.314.948,5.449,1.555,8.916s1.1,6.611,1.489,8.93c.175,1.119.318,2.034.422,2.708.043.3.076.545.1.74a1.087,1.087,0,0,1,0,.261.91.91,0,0,1-.071-.251c-.038-.194-.085-.436-.147-.73-.123-.673-.294-1.584-.5-2.7-.413-2.281-.948-5.43-1.555-8.915s-1.119-6.639-1.484-8.93c-.171-1.119-.313-2.039-.417-2.713q-.057-.446-.1-.74A1.2,1.2,0,0,1,265.594,320.08Z" transform="translate(-167.58 -226.223)" fill="#263238"/>
      <path id="Trazado_145284" data-name="Trazado 145284" d="M236.663,246a.229.229,0,0,0,.033.095l.076.275c.062.247.166.6.266,1.076a34.48,34.48,0,0,1,.626,4.064,45.453,45.453,0,0,1,.157,6.2c-.081,2.371-.327,4.965-.683,7.73v.085h-.085l-2.717.5.09-.166c.156.417.313.863.436,1.323a16.814,16.814,0,0,1-.308,9.157,28.669,28.669,0,0,1-3.168,6.829c-1.129,1.83-2.144,3.234-2.845,4.206l-.82,1.11c-.085.119-.161.209-.218.285a.387.387,0,0,1-.081.095s0-.038.062-.109l.2-.3c.19-.275.474-.654.778-1.138.678-.986,1.674-2.4,2.774-4.24a29.264,29.264,0,0,0,3.1-6.8,16.627,16.627,0,0,0,.289-9.01,13.425,13.425,0,0,0-.427-1.3l-.052-.138.147-.028,2.7-.5-.1.1c.36-2.755.621-5.354.711-7.706a47.669,47.669,0,0,0-.1-6.165,37.8,37.8,0,0,0-.555-4.064c-.085-.474-.18-.835-.223-1.081-.024-.114-.043-.2-.057-.28A.313.313,0,0,1,236.663,246Z" transform="translate(-147.522 -187.274)" fill="#263238"/>
      <path id="Trazado_145285" data-name="Trazado 145285" d="M244.421,319.671v-6.018s.076-1.484-1.176-1.171-1.02,2.66-1.02,2.66-.232,9.157.313,9.081.759-.782.759-.782v-3.524Z" transform="translate(-155.28 -222.205)" fill="#7e5ee3"/>
      <path id="Trazado_145286" data-name="Trazado 145286" d="M250.729,328.327a42.359,42.359,0,0,1-6.459,0,42.359,42.359,0,0,1,6.459,0Z" transform="translate(-156.381 -230.486)" fill="#263238"/>
      <path id="Trazado_145287" data-name="Trazado 145287" d="M272.453,267.32a4.425,4.425,0,0,1-.673.251,15.191,15.191,0,0,0-1.793.773,13.94,13.94,0,0,0-4.847,4.131,10.327,10.327,0,0,0-.948,1.551,10.044,10.044,0,0,0-.569,1.593,15.712,15.712,0,0,0-.474,2.845c-.066.82-.081,1.494-.085,1.954a6.1,6.1,0,0,1,0,.721,2.918,2.918,0,0,1-.095-.692,17.239,17.239,0,0,1,0-1.968,14.644,14.644,0,0,1,.432-2.893,10,10,0,0,1,.574-1.641,10.577,10.577,0,0,1,.972-1.593,13.393,13.393,0,0,1,4.97-4.14,12.339,12.339,0,0,1,1.835-.711A3.548,3.548,0,0,1,272.453,267.32Z" transform="translate(-166.198 -198.483)" fill="#263238"/>
      <path id="Trazado_145288" data-name="Trazado 145288" d="M58.94,372.99l43.131,15.972,36.359,5.558L95.2,373.445Z" transform="translate(-58.94 -254.042)" fill="#263238"/>
      <path id="Trazado_145289" data-name="Trazado 145289" d="M94.583,398.89a18.363,18.363,0,0,0-2.3-6.535,4.749,4.749,0,0,1-.588-1.228,1.4,1.4,0,0,1,.242-1.285c.555-.6,1.565-.337,2.248.119a7.9,7.9,0,0,1,2.9,4.069,23.61,23.61,0,0,1,.948,4.984" transform="translate(-76.126 -262.718)" fill="#ffbe9d"/>
      <path id="Trazado_145290" data-name="Trazado 145290" d="M112.635,392.173h-2.144a4.2,4.2,0,0,0-1.9-1.081,1.49,1.49,0,0,0-1.423.555c.948-1.579,1.992-3.32,2.191-3.794.384-.925-.474-1.617-1.854-1.617s-7.488,8.645-7.488,8.645,3.794-6.957,4.159-8.019c.92-2.656-1.987-2.845-3.04-1.57-1.309,1.589-6.6,9.589-6.6,9.589a3.725,3.725,0,0,0-.313,3.163c.692,1.541,2.7.948,2.7.948a2.589,2.589,0,0,0,1.423,2.143c1.546.863,3.585-.138,3.585-.138l7.905,1.774,2.845-.285a8.764,8.764,0,0,0,7.8-7.436h0Z" transform="translate(-77.367 -260.108)" fill="#ffbe9d"/>
      <path id="Trazado_145291" data-name="Trazado 145291" d="M116.664,399.28a24.6,24.6,0,0,1-2.324,3.69c-.683.991-1.314,1.9-1.783,2.513a6.265,6.265,0,0,1-.8,1,6.428,6.428,0,0,1,.654-1.1c.432-.659,1.039-1.565,1.721-2.556s1.309-1.9,1.764-2.523l.55-.754A1.923,1.923,0,0,1,116.664,399.28Z" transform="translate(-86.711 -267.864)" fill="#eb996e"/>
      <path id="Trazado_145292" data-name="Trazado 145292" d="M121.1,408.213a7.806,7.806,0,0,1,.7-1.29c.474-.778,1.129-1.835,1.859-3.011.365-.583.716-1.143,1-1.66a1.921,1.921,0,0,0,.175-1.465,3.644,3.644,0,0,0-.673-1.257,1.274,1.274,0,0,1,.3.256,2.453,2.453,0,0,1,.536.948,2.053,2.053,0,0,1-.138,1.617c-.285.536-.631,1.1-.991,1.688-.735,1.176-1.423,2.219-1.925,2.973A10.334,10.334,0,0,1,121.1,408.213Z" transform="translate(-91.622 -267.996)" fill="#eb996e"/>
      <path id="Trazado_145293" data-name="Trazado 145293" d="M128.73,412.413a4.424,4.424,0,0,1,.422-1.228l.564-1.29a10.515,10.515,0,0,0,.579-1.589,1.868,1.868,0,0,0-.251-1.541,1.454,1.454,0,0,0-.564-.4,1.564,1.564,0,0,0-.588-.166,2.377,2.377,0,0,0-.849.3,1.011,1.011,0,0,1-.322.133,2.171,2.171,0,0,1,.275-.218,3.953,3.953,0,0,1,.356-.213,1.4,1.4,0,0,1,.541-.175,1.745,1.745,0,0,1,.673.152,1.6,1.6,0,0,1,.654.446,2.034,2.034,0,0,1,.313,1.74,9.109,9.109,0,0,1-.612,1.631c-.223.474-.436.906-.612,1.266A12.237,12.237,0,0,1,128.73,412.413Z" transform="translate(-95.103 -271.408)" fill="#eb996e"/>
      <path id="Trazado_145294" data-name="Trazado 145294" d="M132.92,403.76a.844.844,0,0,1,.332.1,3.877,3.877,0,0,1,.825.474,4.5,4.5,0,0,1,1.276,5.719,3.875,3.875,0,0,1-.536.792c-.152.166-.251.242-.261.232a6.915,6.915,0,0,0,.64-1.1,4.571,4.571,0,0,0-1.228-5.506A11.344,11.344,0,0,0,132.92,403.76Z" transform="translate(-97.837 -270.22)" fill="#eb996e"/>
      <path id="Trazado_145295" data-name="Trazado 145295" d="M99.435,394.19a23.174,23.174,0,0,1-1.788,2.845,22.817,22.817,0,0,1-1.987,2.755,22.792,22.792,0,0,1,1.783-2.845A23.085,23.085,0,0,1,99.435,394.19Z" transform="translate(-78.246 -265.188)" fill="#eb996e"/>
      <path id="Trazado_145296" data-name="Trazado 145296" d="M179.432,375.745,174.5,374.63l-4.742-4.462a3.389,3.389,0,0,0-2.115-.91l-8.617-.474a3.347,3.347,0,0,0-2.371.787l-6.165,5.217,26.893,13.065,3.689.327Z" transform="translate(-107.074 -251.826)" fill="#ffbe9d"/>
      <path id="Trazado_145297" data-name="Trazado 145297" d="M169.206,378.061c0,.038-.635-.076-1.66-.209a6.96,6.96,0,0,0-3.9.408,10.081,10.081,0,0,0-1.859,1.162c-.545.408-1.034.787-1.465,1.077a7.86,7.86,0,0,1-1.067.621,1.547,1.547,0,0,1-.422.156c0-.038.564-.3,1.389-.92.413-.3.887-.7,1.423-1.119a9.767,9.767,0,0,1,1.9-1.2,5.583,5.583,0,0,1,2.2-.474,9.815,9.815,0,0,1,1.826.142,11.454,11.454,0,0,1,1.2.247A1.327,1.327,0,0,1,169.206,378.061Z" transform="translate(-111.459 -256.443)" fill="#eb996e"/>
      <path id="Trazado_145298" data-name="Trazado 145298" d="M177.752,388.3c0,.038-.351-.119-.948-.175a4.906,4.906,0,0,0-2.215.308,11.4,11.4,0,0,0-2.03,1.039,4.229,4.229,0,0,1-.839.474,3.454,3.454,0,0,1,.74-.616A8.753,8.753,0,0,1,174.5,388.2a4.532,4.532,0,0,1,2.324-.251A1.761,1.761,0,0,1,177.752,388.3Z" transform="translate(-118.237 -261.88)" fill="#eb996e"/>
      <path id="Trazado_145299" data-name="Trazado 145299" d="M204.147,385.483c-.062.038-.754-1-1.669-2.219a27.02,27.02,0,0,1-1.65-2.234,11.056,11.056,0,0,1,1.845,2.087A10.881,10.881,0,0,1,204.147,385.483Z" transform="translate(-133.539 -258.269)" fill="#eb996e"/>
      <path id="Trazado_145300" data-name="Trazado 145300" d="M175.545,356.537l10.907-10.172a1.043,1.043,0,0,0,.055-1.474,1.075,1.075,0,0,0-.131-.119h0a1.043,1.043,0,0,0-1.333.052l-12.8,11.486" transform="translate(-118.51 -239.092)" fill="#7e5ee3"/>
      <g id="Grupo_73248" data-name="Grupo 73248" transform="translate(53.73 105.464)" opacity="0.3">
        <path id="Trazado_145301" data-name="Trazado 145301" d="M175.545,356.537l10.907-10.172a1.043,1.043,0,0,0,.055-1.474,1.075,1.075,0,0,0-.131-.119h0a1.043,1.043,0,0,0-1.333.052l-12.8,11.486" transform="translate(-172.24 -344.556)"/>
      </g>
    </g>
    <g id="freepik--character-2--inject-8" transform="translate(154.398 76.885)">
      <path id="Trazado_145302" data-name="Trazado 145302" d="M360.339,162.8c-.171-.066-6.786-1.8-6.388,4.889s7.033,4.908,7.038,4.714S360.339,162.8,360.339,162.8Z" transform="translate(-320.476 -138.902)" fill="#b78876"/>
      <path id="Trazado_145303" data-name="Trazado 145303" d="M360.669,172.485c-.033-.024-.114.085-.3.19a1.157,1.157,0,0,1-.873.066,2.879,2.879,0,0,1-1.489-2.5,3.909,3.909,0,0,1,.209-1.665,1.346,1.346,0,0,1,.825-.948.593.593,0,0,1,.707.28c.1.18.066.318.1.327s.138-.123.066-.394a.718.718,0,0,0-.289-.4.862.862,0,0,0-.654-.133,1.636,1.636,0,0,0-1.152,1.11,3.9,3.9,0,0,0-.294,1.9,3.036,3.036,0,0,0,1.873,2.788,1.251,1.251,0,0,0,1.058-.242C360.665,172.646,360.693,172.494,360.669,172.485Z" transform="translate(-322.352 -141.39)" fill="#aa6550"/>
      <path id="Trazado_145304" data-name="Trazado 145304" d="M402.66,112.69c3.4,0,6.862,0,11.116,2.224a13.823,13.823,0,0,1,5.752,6.3,14.51,14.51,0,0,1,1.584,7.061,15.476,15.476,0,0,1-1.057,6.056" transform="translate(-346.095 -112.686)" fill="#263238"/>
      <path id="Trazado_145305" data-name="Trazado 145305" d="M381.2,113.749a18.021,18.021,0,0,1,19.256,16.694c.008.117.015.233.021.35.436,8.38.82,17.442.73,22-.2,9.8-10.011,11.244-10.011,11.244s.218,2.9.474,6.506a12.908,12.908,0,0,1-12.027,13.734c-.12.008-.24.014-.36.019h0A12.9,12.9,0,0,1,365.9,171.9v-.018L364.445,132.4a18.021,18.021,0,0,1,16.769-18.661Z" transform="translate(-325.996 -113.218)" fill="#b78876"/>
      <path id="Trazado_145306" data-name="Trazado 145306" d="M406.937,215.554a23.291,23.291,0,0,1-12.567-3.874s2.964,7.113,12.742,6.326Z" transform="translate(-341.736 -164.732)" fill="#aa6550"/>
      <path id="Trazado_145307" data-name="Trazado 145307" d="M429.439,159.818a1.394,1.394,0,0,1-1.356,1.423A1.333,1.333,0,0,1,426.662,160c0-.011,0-.022,0-.033a1.423,1.423,0,0,1,1.356-1.423,1.337,1.337,0,0,1,1.421,1.248Z" transform="translate(-358.713 -136.795)" fill="#263238"/>
      <path id="Trazado_145308" data-name="Trazado 145308" d="M429.26,155.4c-.175.18-1.228-.612-2.736-.621s-2.613.74-2.774.555c-.081-.085.1-.413.583-.759a3.794,3.794,0,0,1,2.224-.664,3.64,3.64,0,0,1,2.172.721C429.189,154.986,429.345,155.318,429.26,155.4Z" transform="translate(-357.173 -134.357)" fill="#263238"/>
      <path id="Trazado_145309" data-name="Trazado 145309" d="M398.3,159.818a1.394,1.394,0,0,1-1.361,1.423,1.337,1.337,0,0,1-1.421-1.248v-.023a1.423,1.423,0,0,1,1.361-1.423A1.342,1.342,0,0,1,398.3,159.8Z" transform="translate(-342.341 -136.795)" fill="#263238"/>
      <path id="Trazado_145310" data-name="Trazado 145310" d="M398.047,155.743c-.175.18-1.233-.612-2.736-.621s-2.613.735-2.779.55c-.076-.081.1-.413.588-.759a3.835,3.835,0,0,1,2.224-.664,3.707,3.707,0,0,1,2.172.721C397.961,155.331,398.132,155.658,398.047,155.743Z" transform="translate(-340.76 -134.536)" fill="#263238"/>
      <path id="Trazado_145311" data-name="Trazado 145311" d="M414.839,167.087a10.5,10.5,0,0,1,2.447-.422c.384-.038.749-.109.816-.37a1.924,1.924,0,0,0-.247-1.143c-.351-.948-.726-1.9-1.114-2.935-1.546-4.183-2.66-7.616-2.49-7.678s1.56,3.277,3.1,7.46c.375,1.029.73,2.011,1.067,2.954a2.224,2.224,0,0,1,.19,1.508.993.993,0,0,1-.64.56,2.914,2.914,0,0,1-.65.085A8.484,8.484,0,0,1,414.839,167.087Z" transform="translate(-352.18 -134.689)" fill="#263238"/>
      <path id="Trazado_145312" data-name="Trazado 145312" d="M405.87,183.15c.247,0,.232,1.622,1.622,2.793s3.135,1.005,3.144,1.233c0,.1-.394.318-1.129.332a4.077,4.077,0,0,1-2.622-.948,3.572,3.572,0,0,1-1.257-2.343C405.571,183.553,405.756,183.14,405.87,183.15Z" transform="translate(-347.65 -149.732)" fill="#263238"/>
      <path id="Trazado_145313" data-name="Trazado 145313" d="M397.469,143.731c-.152.408-1.65.2-3.419.4s-3.2.669-3.433.3c-.1-.175.152-.56.73-.948a5.989,5.989,0,0,1,5.216-.531C397.213,143.2,397.535,143.518,397.469,143.731Z" transform="translate(-339.751 -128.405)" fill="#263238"/>
      <path id="Trazado_145314" data-name="Trazado 145314" d="M429.26,144c-.266.341-1.3-.024-2.547-.047s-2.3.209-2.547-.152c-.1-.175.062-.517.526-.835a3.685,3.685,0,0,1,4.107.161C429.236,143.479,429.379,143.83,429.26,144Z" transform="translate(-357.387 -128.314)" fill="#263238"/>
      <path id="Trazado_145315" data-name="Trazado 145315" d="M364.264,134.932s.427,2.267.541,3.286c.043.375,0,4.524,1,4.742a3.651,3.651,0,0,0,3.358-2.328c.768-1.717,2.229-5.838,2.068-7.711a27.107,27.107,0,0,1,.18-7.664,11.035,11.035,0,0,1,3.727-6.544,6.975,6.975,0,0,1,7.227-.982c1.423.711,2.471,1.968,3.794,2.845a5.885,5.885,0,0,0,4.04,1.048,3.794,3.794,0,0,0,3.125-2.561,4.139,4.139,0,0,0-1.551-4.121,9.471,9.471,0,0,0-4.268-1.75,22.947,22.947,0,0,0-12.719.892,16.552,16.552,0,0,0-9.295,8.508c-1.982,4.567-1.755,7.369-1.228,12.33" transform="translate(-325.715 -112.682)" fill="#263238"/>
      <path id="Trazado_145316" data-name="Trazado 145316" d="M397.005,153.864a11.5,11.5,0,0,0-.256-1.612,6.639,6.639,0,0,0-2.423-3.609,6.515,6.515,0,0,0-2.765-1.214,6.606,6.606,0,0,0-3.443.289,6.084,6.084,0,0,0-1.65.9A6.018,6.018,0,0,0,385.083,150a6.525,6.525,0,0,0,0,7.725,6.218,6.218,0,0,0,1.385,1.389,6.084,6.084,0,0,0,1.65.892,6.607,6.607,0,0,0,3.443.294,6.5,6.5,0,0,0,2.765-1.219,6.639,6.639,0,0,0,2.428-3.6,11.855,11.855,0,0,0,.251-1.617.283.283,0,0,1,0,.109v.318a2.7,2.7,0,0,1-.043.517,4.335,4.335,0,0,1-.123.692,6.637,6.637,0,0,1-2.414,3.727,6.719,6.719,0,0,1-6.388,1,6.265,6.265,0,0,1-1.717-.915,6.348,6.348,0,0,1-1.423-1.423,6.749,6.749,0,0,1,0-8.014,6.722,6.722,0,0,1,6.706-2.651,6.7,6.7,0,0,1,5.259,5,4.393,4.393,0,0,1,.123.7,2.649,2.649,0,0,1,.043.512v.318A.462.462,0,0,1,397.005,153.864Z" transform="translate(-336.063 -130.779)" fill="#263238"/>
      <path id="Trazado_145317" data-name="Trazado 145317" d="M433.344,153.859a12.5,12.5,0,0,0-.256-1.612,6.639,6.639,0,0,0-2.428-3.609,6.487,6.487,0,0,0-2.765-1.214A6.541,6.541,0,0,0,421.422,150a6.507,6.507,0,0,0,0,7.725,6.188,6.188,0,0,0,1.38,1.389,6.031,6.031,0,0,0,1.655.892,6.59,6.59,0,0,0,3.438.294,6.5,6.5,0,0,0,2.765-1.219,6.639,6.639,0,0,0,2.428-3.6,12.5,12.5,0,0,0,.256-1.617,1.032,1.032,0,0,1,0,.109v.318a3.087,3.087,0,0,1-.038.517,4.4,4.4,0,0,1-.128.692,6.589,6.589,0,0,1-2.414,3.727,6.766,6.766,0,0,1-9.551-9.39,6.308,6.308,0,0,1,1.423-1.423,6.413,6.413,0,0,1,1.717-.92,6.835,6.835,0,0,1,3.557-.28,6.682,6.682,0,0,1,2.845,1.28,6.6,6.6,0,0,1,2.414,3.723,4.467,4.467,0,0,1,.128.7,3.037,3.037,0,0,1,.038.512v.318A.9.9,0,0,1,433.344,153.859Z" transform="translate(-355.154 -130.774)" fill="#263238"/>
      <path id="Trazado_145318" data-name="Trazado 145318" d="M415.865,159.126a3.388,3.388,0,0,1-.617-.209,3.977,3.977,0,0,0-1.522-.2,4.149,4.149,0,0,0-1.47.389c-.356.175-.555.327-.579.294s.142-.223.474-.446a3.424,3.424,0,0,1,3.13-.209C415.694,158.927,415.884,159.107,415.865,159.126Z" transform="translate(-350.835 -136.752)" fill="#263238"/>
      <path id="Trazado_145319" data-name="Trazado 145319" d="M425.118,122.1c.1-.507-.071-.792.218-1s.948.389,1.167.635c.076.081.3-.232.394-.289a1.731,1.731,0,0,0,.171-.65c-.043-.356-.6-.474-.858-.692a2.636,2.636,0,0,0-.925-.526.891.891,0,0,0-.882.052.868.868,0,0,0-.2.664,1.815,1.815,0,0,0,.133.692.947.947,0,0,0,.474.5" transform="translate(-357.418 -116.259)" fill="#263238"/>
      <path id="Trazado_145320" data-name="Trazado 145320" d="M363.9,145.96s4.8,1.759,7.3,2.822l-.142-2.457-6.985-2.765S363.9,145.386,363.9,145.96Z" transform="translate(-325.716 -128.917)" fill="#ebebeb"/>
      <path id="Trazado_145321" data-name="Trazado 145321" d="M364.85,140.57a27.646,27.646,0,0,1,3.4,1.3,26.776,26.776,0,0,1,3.32,1.532,27.658,27.658,0,0,1-3.4-1.3A26.782,26.782,0,0,1,364.85,140.57Z" transform="translate(-326.215 -127.344)" fill="#ebebeb"/>
      <path id="Trazado_145322" data-name="Trazado 145322" d="M365.665,236.8l-.37-11.623s2.31,10.637,14.407,10.5c11.557-.133,11.348-9.371,11.348-9.371l.413,4.685v18.926l-7.54,30.877-9.632,1.2L363.65,239.8Z" transform="translate(-325.584 -171.83)" fill="#7e5ee3"/>
      <path id="Trazado_145323" data-name="Trazado 145323" d="M392.214,240.451a1.194,1.194,0,0,1-.138.247,6.94,6.94,0,0,1-.474.673,9.961,9.961,0,0,1-2.153,2.087,12.385,12.385,0,0,1-4.021,1.9,14.168,14.168,0,0,1-5.43.375,17.6,17.6,0,0,1-5.217-1.57,22.7,22.7,0,0,1-3.794-2.3,26.74,26.74,0,0,1-2.3-1.9c-.261-.237-.451-.436-.583-.569a1.28,1.28,0,0,1-.19-.209,1.306,1.306,0,0,1,.223.175l.616.531a29.159,29.159,0,0,0,2.343,1.84,23.662,23.662,0,0,0,3.794,2.229,17.688,17.688,0,0,0,5.145,1.527,14.187,14.187,0,0,0,5.335-.346,12.728,12.728,0,0,0,3.984-1.812,10.68,10.68,0,0,0,2.177-2C391.982,240.764,392.2,240.437,392.214,240.451Z" transform="translate(-327.824 -179.196)" fill="#263238"/>
      <path id="Trazado_145324" data-name="Trazado 145324" d="M357.207,332.538l-.175-54.868-15.583-40.03-.522-12.05-9.485,7.18s-13.814,47.551-14.047,45.91,0,53.858,0,53.858Z" transform="translate(-301.211 -172.046)" fill="#ebebeb"/>
      <path id="Trazado_145325" data-name="Trazado 145325" d="M400.533,389.559c-.066,0-.123-12.363-.123-27.614s.057-27.614.123-27.614.123,12.363.123,27.614S400.6,389.559,400.533,389.559Z" transform="translate(-344.912 -229.218)" fill="#263238"/>
      <path id="Trazado_145326" data-name="Trazado 145326" d="M347.4,257.21l1.925,1.461-1.352,8.878,22.744,23.825L350.06,264.243l1.759-7.033Z" transform="translate(-317.041 -188.67)" fill="#e0e0e0"/>
      <path id="Trazado_145327" data-name="Trazado 145327" d="M340.362,312.37l-34.908-10.234L304.3,275.622l9.575-34.932s-22.82,11.386-24.375,18.642-5.3,24.859-5.691,37.592c-.356,11.381-.408,18.969,2.191,22.625,7.445,10.4,56.5,12.264,76.095,0" transform="translate(-283.512 -179.985)" fill="#ebebeb"/>
      <path id="Trazado_145328" data-name="Trazado 145328" d="M371.012,275.275a1.1,1.1,0,0,1-.114-.128c-.071-.09-.185-.228-.313-.389l-1.186-1.518c-1.034-1.337-2.509-3.253-4.325-5.615L350.881,249.05l-1.067-1.423-.038-.047v-.057c.607-2.428,1.2-4.785,1.764-7.033l.114.152H347.12v-8l.038-.028,6.862-5.217,1.9-1.423.474-.365a.9.9,0,0,1,.175-.114l-.156.138-.474.384-1.854,1.451-6.81,5.283.038-.076v7.834l-.114-.109h4.61l-.038.152-1.755,7.033-.024-.1,1.072,1.4,14.132,18.623,4.268,5.658c.474.664.877,1.181,1.148,1.546.123.171.218.308.294.408Z" transform="translate(-316.893 -171.998)" fill="#263238"/>
      <path id="Trazado_145329" data-name="Trazado 145329" d="M414.942,231.477c-2.784-4.866-4.23-4.363-4.23-4.363l.147,1.736V232.5l-1.323,15.65-8.456,34,.175,51.188h31.968l3.979-62.484-.36-26.922Z" transform="translate(-345.264 -172.839)" fill="#ebebeb"/>
      <path id="Trazado_145330" data-name="Trazado 145330" d="M419.359,262.58s8.275,6.108,9.01,15.939c.583,7.981,1.9,29.838,2.158,34.6.379,7.407-5.392,24.759-20.416,19.846-9.01-2.95-42.292-14.26-42.292-14.26l2.215-14.137,39.5,2.371.787-32.949Z" transform="translate(-327.777 -191.494)" fill="#ebebeb"/>
      <path id="Trazado_145331" data-name="Trazado 145331" d="M349.565,353.694s-11.182-1.209-13.753-.583c-2.49.6-6.032,3.647-6.032,3.647l.052,4.415L347.82,366.2Z" transform="translate(-307.777 -238.998)" fill="#b78876"/>
      <path id="Trazado_145332" data-name="Trazado 145332" d="M401.09,277.063a.821.821,0,0,1,.052-.152c.038-.109.095-.256.166-.436.157-.4.384-.948.669-1.669l2.5-6.127,3.737-9.077c.356-.849.707-1.736,1.148-2.6s.92-1.736,1.423-2.6a58.064,58.064,0,0,1,3.547-5.122c.645-.83,1.295-1.641,1.968-2.419v.128l-1.394-3.542-.047-.119.119-.043,5.819-1.968-.062.161c-2.7-4.515-4.984-8.327-6.606-11.031a8.6,8.6,0,0,0-2.205-2.845,2.984,2.984,0,0,0-.882-.356,3.11,3.11,0,0,1-.327-.081,2.925,2.925,0,0,1,1.247.379,4.048,4.048,0,0,1,1.119,1.086,19.216,19.216,0,0,1,1.162,1.745l6.687,10.993.071.119-.133.043-5.819,2,.071-.156,1.4,3.542.029.066-.052.057c-.664.768-1.314,1.579-1.954,2.409a58.429,58.429,0,0,0-3.538,5.084c-.507.863-1.005,1.712-1.423,2.58s-.787,1.731-1.143,2.585c-1.423,3.4-2.713,6.473-3.794,9.058s-1.963,4.643-2.575,6.094c-.3.707-.545,1.261-.711,1.655-.081.18-.142.318-.194.427A.6.6,0,0,1,401.09,277.063Z" transform="translate(-345.269 -172.871)" fill="#263238"/>
      <path id="Trazado_145333" data-name="Trazado 145333" d="M404.06,386.862a.9.9,0,0,1-.138.147l-.427.413a12.282,12.282,0,0,1-1.816,1.375,12.117,12.117,0,0,1-3.32,1.394,13.361,13.361,0,0,1-4.742.3,15.008,15.008,0,0,1-2.727-.579c-.948-.294-1.859-.659-2.845-1C386.1,388.2,384,387.492,381.8,386.7c-4.41-1.546-9.271-3.2-14.393-4.88-10.243-3.362-19.586-6.2-26.358-8.223l-8.024-2.371-2.181-.65-.564-.171a1.114,1.114,0,0,1-.19-.071l.2.043.569.152,2.2.6c1.9.531,4.652,1.314,8.062,2.3,6.781,1.978,16.124,4.79,26.381,8.157,5.126,1.679,9.987,3.32,14.393,4.894,2.2.782,4.292,1.527,6.241,2.243.977.351,1.9.721,2.845,1.015a14.723,14.723,0,0,0,2.689.583,13.352,13.352,0,0,0,4.7-.261,12.477,12.477,0,0,0,3.32-1.342,13.407,13.407,0,0,0,1.831-1.333l.441-.394A1.075,1.075,0,0,1,404.06,386.862Z" transform="translate(-307.94 -248.146)" fill="#263238"/>
      <path id="Trazado_145334" data-name="Trazado 145334" d="M320.081,370.238c0,.052-.631-.085-1.631-.043a7.173,7.173,0,0,0-1.726.285,7.86,7.86,0,0,0-1.944.887,9.082,9.082,0,0,0-2.708,2.779c-.526.854-.759,1.423-.8,1.423a1.668,1.668,0,0,1,.133-.422,7.3,7.3,0,0,1,.522-1.091,8.467,8.467,0,0,1,2.722-2.9,7.642,7.642,0,0,1,2.015-.9,6.969,6.969,0,0,1,1.783-.242,5.8,5.8,0,0,1,1.2.109A1.616,1.616,0,0,1,320.081,370.238Z" transform="translate(-298.045 -247.982)" fill="#263238"/>
      <path id="Trazado_145335" data-name="Trazado 145335" d="M306.66,361.92a.308.308,0,0,1,.043-.128,1.255,1.255,0,0,1,.218-.308,2.244,2.244,0,0,1,1.242-.616,6.291,6.291,0,0,1,2.049,0,11.639,11.639,0,0,1,2.433.593,10.688,10.688,0,0,1,3.856,2.371,8.071,8.071,0,0,1,.9,1.048,2.071,2.071,0,0,1,.261.432c-.043.033-.432-.574-1.276-1.352a11.32,11.32,0,0,0-3.822-2.253,12.847,12.847,0,0,0-2.371-.6,6.681,6.681,0,0,0-1.992-.057,2.289,2.289,0,0,0-1.2.512A4.68,4.68,0,0,0,306.66,361.92Z" transform="translate(-295.621 -243.126)" fill="#263238"/>
      <path id="Trazado_145336" data-name="Trazado 145336" d="M318.456,287.466a3.707,3.707,0,0,1-.161-.716c-.071-.228-.171-.5-.28-.811a5.71,5.71,0,0,0-.517-1.015,14.52,14.52,0,0,0-1.778-2.371,19.373,19.373,0,0,0-2.727-2.4,16.438,16.438,0,0,0-5.961-2.736,12.451,12.451,0,0,0-1.987-.256,4.437,4.437,0,0,1-.735-.057,4.155,4.155,0,0,1,.74-.038,10.082,10.082,0,0,1,2.015.18,15.652,15.652,0,0,1,6.07,2.708,17.952,17.952,0,0,1,2.751,2.442,13.652,13.652,0,0,1,1.764,2.438,8.044,8.044,0,0,1,.474,1.048,6,6,0,0,1,.247.839A5.036,5.036,0,0,1,318.456,287.466Z" transform="translate(-294.385 -199.109)" fill="#263238"/>
      <path id="Trazado_145337" data-name="Trazado 145337" d="M419.206,367.146a.858.858,0,0,1,0-.171v-.5c0-.436-.033-1.077-.095-1.9a26.6,26.6,0,0,0-1.423-6.834,9.662,9.662,0,0,0-.948-2.087,4.094,4.094,0,0,0-1.85-1.57c-1.589-.683-3.5-.593-5.444-.7l-12.728-.536c-10.518-.474-19.875-.854-25.755-1.167l.081-.066c-.356,2.162-.64,3.874-.835,5.065-.1.574-.175,1.02-.232,1.337-.024.142-.047.256-.062.346l-.028.114a.55.55,0,0,1,0-.119l.047-.346c.043-.318.109-.768.19-1.347.18-1.19.436-2.907.763-5.074v-.066h.071l25.755,1.072,12.728.574c.977.047,1.93.071,2.845.147a8.251,8.251,0,0,1,2.656.6,4.3,4.3,0,0,1,1.944,1.627,9.666,9.666,0,0,1,.948,2.134,25.6,25.6,0,0,1,1.347,6.876c.052.825.052,1.47.047,1.9v.5C419.211,367.085,419.206,367.146,419.206,367.146Z" transform="translate(-328.862 -238.261)" fill="#263238"/>
      <path id="Trazado_145338" data-name="Trazado 145338" d="M457.863,319.24c.066,0,.123,3.827.123,8.536s-.057,8.536-.123,8.536-.123-3.827-.123-8.536S457.8,319.24,457.863,319.24Z" transform="translate(-375.054 -221.284)" fill="#263238"/>
      <path id="Trazado_145339" data-name="Trazado 145339" d="M289.641,278.17s-.029.109-.095.313a9.051,9.051,0,0,0-.285.948c-.232.82-.526,2.044-.854,3.642-.659,3.2-1.47,7.872-2.371,13.724-.451,2.931-.948,6.165-1.423,9.632-.242,1.74-.394,3.552-.517,5.43s-.223,3.794-.3,5.8c-.142,3.988-.228,8.2-.114,12.586.038,1.1.076,2.205.166,3.32.028.56.123,1.11.19,1.665a14.031,14.031,0,0,0,.4,1.641,9.35,9.35,0,0,0,1.574,3,6.733,6.733,0,0,0,2.694,2.077h0a41.2,41.2,0,0,0,7.033,2.684c2.452.735,4.984,1.328,7.554,1.854a103.887,103.887,0,0,0,16.977,2.068,78.858,78.858,0,0,0,8.1-.209c2.641-.185,5.216-.474,7.706-.83a81.089,81.089,0,0,0,13.829-3.215,70.474,70.474,0,0,0,11.182-4.8v.156l-15.3-5.439-4.13-1.475-1.067-.389c-.242-.09-.36-.142-.36-.142l.365.119,1.076.365,4.145,1.423,15.365,5.359.185.062-.171.095A70.62,70.62,0,0,1,350,344.481a80.985,80.985,0,0,1-13.862,3.248c-2.495.375-5.074.654-7.72.839a79.325,79.325,0,0,1-8.128.218,103.765,103.765,0,0,1-17.02-2.068c-2.58-.531-5.117-1.124-7.588-1.859a42,42,0,0,1-7.076-2.708h0A6.978,6.978,0,0,1,285.8,340a9.581,9.581,0,0,1-1.608-3.082,13.832,13.832,0,0,1-.413-1.669c-.071-.569-.161-1.129-.19-1.688-.09-1.119-.128-2.234-.161-3.32-.114-4.4,0-8.612.133-12.6q.114-2.988.308-5.809c.128-1.9.285-3.7.531-5.439.474-3.486.977-6.706,1.423-9.632.948-5.852,1.774-10.523,2.461-13.715.341-1.6.645-2.822.892-3.642.1-.413.237-.716.3-.92A.906.906,0,0,1,289.641,278.17Z" transform="translate(-283.382 -199.691)" fill="#263238"/>
      <path id="Trazado_145340" data-name="Trazado 145340" d="M329.74,334.626c5.838-6.464,5.582-17.954,2.229-26.106-.308,8.83-1.352,16.664-2.148,25.248" transform="translate(-307.755 -215.648)" fill="#e0e0e0"/>
      <path id="Trazado_145341" data-name="Trazado 145341" d="M332.035,312a1.3,1.3,0,0,1,0,.285c0,.213-.028.474-.052.806-.057.735-.133,1.74-.232,2.964-.209,2.532-.474,5.97-.8,9.774l-.768,9.779c-.09,1.223-.166,2.229-.223,2.964l-.071.8a1.912,1.912,0,0,1-.038.28.955.955,0,0,1,0-.28c0-.213,0-.474.024-.811.024-.7.076-1.717.142-2.969.147-2.5.384-5.966.7-9.783s.626-7.27.877-9.769c.128-1.224.232-2.224.308-2.959.043-.327.076-.593.1-.8A1.053,1.053,0,0,1,332.035,312Z" transform="translate(-307.807 -217.477)" fill="#263238"/>
      <path id="Trazado_145342" data-name="Trazado 145342" d="M364.673,287.38a101.909,101.909,0,0,1,0,10.025c-.066,0-.123-2.248-.123-5.013S364.607,287.38,364.673,287.38Z" transform="translate(-326.058 -204.533)" fill="#263238"/>
      <path id="Trazado_145343" data-name="Trazado 145343" d="M356.79,313.524a5.134,5.134,0,0,0,1.077,2.656,3.46,3.46,0,0,0,2.561,1.361,3.908,3.908,0,0,0,3.448-1.731,9.767,9.767,0,0,0,.474-7.493,4.322,4.322,0,0,0-3.542-2.879,3.923,3.923,0,0,0-3.841,2.988" transform="translate(-321.978 -214.027)" fill="#e0e0e0"/>
      <path id="Trazado_145344" data-name="Trazado 145344" d="M356.97,308.323a3.226,3.226,0,0,1,.384-1.024,4.215,4.215,0,0,1,.783-1.029,3.658,3.658,0,0,1,1.48-.863,3.7,3.7,0,0,1,.991-.161,2.98,2.98,0,0,1,1.086.142,4.269,4.269,0,0,1,1.935,1.389,5.588,5.588,0,0,1,1.143,2.371,10.4,10.4,0,0,1,.209,2.812,7.766,7.766,0,0,1-1.209,4.093,3.7,3.7,0,0,1-1.574,1.186,4.236,4.236,0,0,1-1.783.3h0a2.663,2.663,0,0,1-1.276-.313,4.284,4.284,0,0,1-.948-.673A4.806,4.806,0,0,1,357.145,315a4.42,4.42,0,0,1-.332-1.152,2.472,2.472,0,0,1-.028-.313.322.322,0,0,1,0-.109,6.683,6.683,0,0,0,.474,1.527,4.814,4.814,0,0,0,1.053,1.484,4.183,4.183,0,0,0,.948.626,2.513,2.513,0,0,0,1.186.28h0a3.794,3.794,0,0,0,3.154-1.423,7.641,7.641,0,0,0,1.148-3.965,7.17,7.17,0,0,0-1.28-5.027,4.108,4.108,0,0,0-1.84-1.323,2.941,2.941,0,0,0-1.02-.147,3.6,3.6,0,0,0-.948.138,3.544,3.544,0,0,0-1.423.8,4.3,4.3,0,0,0-.792.972A9.46,9.46,0,0,0,356.97,308.323Z" transform="translate(-321.973 -213.924)" fill="#263238"/>
      <path id="Trazado_145345" data-name="Trazado 145345" d="M354.45,313.725a5.144,5.144,0,0,0,1.076,2.656,3.452,3.452,0,0,0,2.561,1.361,3.912,3.912,0,0,0,3.448-1.731,9.769,9.769,0,0,0,.474-7.493,4.314,4.314,0,0,0-3.542-2.879,3.921,3.921,0,0,0-3.841,2.983" transform="translate(-320.747 -214.133)" fill="#e0e0e0"/>
      <path id="Trazado_145346" data-name="Trazado 145346" d="M354.625,308.518a3.227,3.227,0,0,1,.384-1.02,4.215,4.215,0,0,1,.782-1.029,3.661,3.661,0,0,1,2.471-1.024,2.989,2.989,0,0,1,1.086.142,4.27,4.27,0,0,1,1.935,1.389,5.531,5.531,0,0,1,1.138,2.371,10.223,10.223,0,0,1,.213,2.812,7.778,7.778,0,0,1-1.209,4.093,3.7,3.7,0,0,1-1.574,1.186,4.237,4.237,0,0,1-1.783.3h0a2.661,2.661,0,0,1-1.276-.318,4.134,4.134,0,0,1-.948-.669,4.69,4.69,0,0,1-1.043-1.56,4.4,4.4,0,0,1-.332-1.148,2.746,2.746,0,0,0-.033-.313.38.38,0,0,1,0-.109,6.693,6.693,0,0,0,.474,1.522,4.7,4.7,0,0,0,1.053,1.489,4.183,4.183,0,0,0,.948.626,2.574,2.574,0,0,0,1.186.28h0a3.8,3.8,0,0,0,3.149-1.423,7.613,7.613,0,0,0,1.152-3.965,7.17,7.17,0,0,0-1.28-5.027,4.058,4.058,0,0,0-1.826-1.337,2.915,2.915,0,0,0-1.015-.147,3.576,3.576,0,0,0-2.371.948,4.294,4.294,0,0,0-.792.972A8.61,8.61,0,0,0,354.625,308.518Z" transform="translate(-320.738 -214.029)" fill="#263238"/>
      <path id="Trazado_145347" data-name="Trazado 145347" d="M355.549,310.788A2.433,2.433,0,0,0,353,312.254a4.208,4.208,0,0,0,0,3.1,3.849,3.849,0,0,0,.792,1.394,2.086,2.086,0,0,0,1.423.688,2.475,2.475,0,0,0,1.959-1.157,4.429,4.429,0,0,0,.669-3.637c-.218-.825-.825-1.665-1.674-1.688" transform="translate(-319.831 -216.83)" fill="#e0e0e0"/>
      <path id="Trazado_145348" data-name="Trazado 145348" d="M356.039,310.918h.19a1.287,1.287,0,0,1,.517.175,2.528,2.528,0,0,1,1.081,1.631,4.445,4.445,0,0,1-.294,2.9,3.677,3.677,0,0,1-1.062,1.394,2.058,2.058,0,0,1-1.831.441,2.561,2.561,0,0,1-1.461-1.2,5.355,5.355,0,0,1-.607-1.641,3.648,3.648,0,0,1,.474-2.845,2.553,2.553,0,0,1,1.65-1.053,1.877,1.877,0,0,1,.545,0c.119.024.18.043.18.052a3.748,3.748,0,0,0-.707.043,2.518,2.518,0,0,0-1.527,1.057,3.494,3.494,0,0,0-.394,2.717,5.119,5.119,0,0,0,.593,1.56,2.319,2.319,0,0,0,1.318,1.081,1.817,1.817,0,0,0,1.617-.389,3.621,3.621,0,0,0,1.005-1.3,4.343,4.343,0,0,0,.327-2.77,2.487,2.487,0,0,0-.948-1.589A1.959,1.959,0,0,0,356.039,310.918Z" transform="translate(-319.705 -216.798)" fill="#263238"/>
      <path id="Trazado_145349" data-name="Trazado 145349" d="M360.98,325.913c-.038,0-.09-.152-.251-.341a1.763,1.763,0,0,0-.811-.517,4.072,4.072,0,0,0-1-.156c-.261,0-.432-.043-.432-.076s.161-.071.432-.1a2.784,2.784,0,0,1,1.072.095,1.549,1.549,0,0,1,.877.654C361.018,325.719,361.008,325.908,360.98,325.913Z" transform="translate(-322.871 -224.158)" fill="#263238"/>
      <path id="Trazado_145350" data-name="Trazado 145350" d="M361.448,309.45a1.067,1.067,0,0,1-.294.341,2.278,2.278,0,0,1-1,.436,2.37,2.37,0,0,1-1.091-.057c-.266-.09-.408-.194-.394-.223a5.56,5.56,0,0,0,1.423.038A5.916,5.916,0,0,0,361.448,309.45Z" transform="translate(-322.965 -216.137)" fill="#263238"/>
      <path id="Trazado_145351" data-name="Trazado 145351" d="M433.24,237.82a.359.359,0,0,1,.156.057,4.18,4.18,0,0,1,.422.218,8.341,8.341,0,0,1,1.423,1.015,10.172,10.172,0,0,1,3.054,4.828,30.882,30.882,0,0,1,1.162,5.624c.085.73.128,1.323.156,1.731a2.886,2.886,0,0,1,0,.64,3.64,3.64,0,0,1-.1-.631c-.062-.451-.142-1.029-.232-1.717a36.274,36.274,0,0,0-1.228-5.577,10.509,10.509,0,0,0-2.931-4.771A15.877,15.877,0,0,0,433.24,237.82Z" transform="translate(-362.173 -178.476)" fill="#263238"/>
      <path id="Trazado_145352" data-name="Trazado 145352" d="M420.585,346.393c1.375-.052,2.475-1.423,3.851-1.347a1.9,1.9,0,1,1-.322,3.794h0c-1.446-.166-2.29-1.859-3.7-2.181" transform="translate(-355.427 -234.851)" fill="#263238"/>
      <path id="Trazado_145353" data-name="Trazado 145353" d="M428.373,306.528a8.154,8.154,0,0,1-1.285-.1l.076-.474a5.425,5.425,0,0,0,4.24-.83c1.423-1.029,2.31-2.874,2.689-5.482v-.1c.156-1.034.37-21.317.37-25.167a6.571,6.571,0,0,0-5.506-6.872c-.228-.033-5.013-.839-7.559,5.729-2.665,6.881-6.928,20.14-7.208,21.7-.038.19-.09.427-.147.7-.446,1.992-1.366,6.132,1.394,8.512,3.078,2.66,5.506,1.631,5.605,1.589l.194.432c-.114.047-2.788,1.209-6.108-1.66-2.978-2.57-2.015-6.9-1.551-8.977.062-.266.109-.474.142-.678.285-1.565,4.562-14.881,7.237-21.781s8.024-6.037,8.062-6.023a7.149,7.149,0,0,1,5.9,7.336c0,3.173-.209,24.138-.375,25.238v.095c-.4,2.741-1.366,4.69-2.879,5.8A5.455,5.455,0,0,1,428.373,306.528Z" transform="translate(-351.559 -193.814)" fill="#263238"/>
      <path id="Trazado_145354" data-name="Trazado 145354" d="M443.209,283.783a8.731,8.731,0,0,0-.986-2.371,8.164,8.164,0,0,0-1.873-2.03,8.066,8.066,0,0,0-3.049-1.423,8.912,8.912,0,0,0-6,.782,10.707,10.707,0,0,0-2.091,1.494.678.678,0,0,1,.109-.142,3.285,3.285,0,0,1,.356-.379,7.124,7.124,0,0,1,1.541-1.124,8.809,8.809,0,0,1,6.141-.873,8.146,8.146,0,0,1,3.13,1.5,7.869,7.869,0,0,1,1.9,2.12,6.176,6.176,0,0,1,.73,1.764,3.929,3.929,0,0,1,.1.512A.624.624,0,0,1,443.209,283.783Z" transform="translate(-360.054 -199.342)" fill="#263238"/>
      <path id="Trazado_145355" data-name="Trazado 145355" d="M472.107,362.622a16.658,16.658,0,0,0-.654-2.02,8.8,8.8,0,0,0-3.215-3.86,6.982,6.982,0,0,0-2.608-.948,22.411,22.411,0,0,0-2.3-.237l-1.56-.109a2.736,2.736,0,0,1-.569-.076,2.369,2.369,0,0,1,.574,0l1.565.028a19.648,19.648,0,0,1,2.324.19,6.979,6.979,0,0,1,2.708.948,8.578,8.578,0,0,1,3.244,4,7.605,7.605,0,0,1,.436,1.513A2.166,2.166,0,0,1,472.107,362.622Z" transform="translate(-376.874 -240.271)" fill="#263238"/>
      <path id="Trazado_145356" data-name="Trazado 145356" d="M433.75,339.752s4.666-7.061,5.857-7.986,11.381-5.525,12.562-4.785.474,2.343.474,2.343,4.306-1.508,4.766-.915a2.13,2.13,0,0,1,0,2.428s2.371-.365,2.371.37a3.021,3.021,0,0,1-1.375,2.475c-1.1.825-8.256,5.586-8.83,6.9l-2.319-.142Z" transform="translate(-362.441 -225.312)" fill="#b78876"/>
      <path id="Trazado_145357" data-name="Trazado 145357" d="M462.05,342.085a2.016,2.016,0,0,1,.213-.446,8.657,8.657,0,0,1,.768-1.1,12.812,12.812,0,0,1,3.381-2.845,25.564,25.564,0,0,1,4-1.9c.526-.2.948-.356,1.257-.474a2.064,2.064,0,0,1,.474-.133,1.793,1.793,0,0,1-.441.223l-1.228.526a32.472,32.472,0,0,0-3.936,1.93,14.132,14.132,0,0,0-3.376,2.746C462.425,341.492,462.093,342.109,462.05,342.085Z" transform="translate(-377.32 -229.67)" fill="#aa6550"/>
      <path id="Trazado_145358" data-name="Trazado 145358" d="M449.58,340.221a2.419,2.419,0,0,1,.228-.517c.161-.327.394-.8.716-1.366a13.035,13.035,0,0,1,1.285-1.9,5.938,5.938,0,0,1,.977-.972c.394-.266.806-.512,1.238-.768a33.674,33.674,0,0,1,4.553-2.267,12.315,12.315,0,0,1,1.461-.474,2.732,2.732,0,0,1,.56-.1c0,.043-.773.223-1.954.754a42.853,42.853,0,0,0-4.5,2.319c-.427.251-.839.5-1.224.754a5.934,5.934,0,0,0-.948.915,13.845,13.845,0,0,0-1.309,1.85l-.787,1.318A2.518,2.518,0,0,1,449.58,340.221Z" transform="translate(-370.764 -227.919)" fill="#aa6550"/>
    </g>
    <g id="freepik--Desk--inject-8" transform="translate(38.06 237.382)">
      <path id="Trazado_145359" data-name="Trazado 145359" d="M357.662,451.243c0,.066-71.547.123-159.787.123S38.06,451.31,38.06,451.243s71.533-.123,159.815-.123S357.662,451.177,357.662,451.243Z" transform="translate(-38.06 -451.12)" fill="#263238"/>
    </g>
  </g>
</svg>
