<svg xmlns="http://www.w3.org/2000/svg" xmlns:xlink="http://www.w3.org/1999/xlink" width="28" height="28" viewBox="0 0 28 28">
  <defs>
    <clipPath id="clip-path">
      <rect id="Rect치ngulo_345878" data-name="Rect치ngulo 345878" width="21.11" height="21.111" fill="#12263f"/>
    </clipPath>
  </defs>
  <g id="Grupo_1001160" data-name="Grupo 1001160" transform="translate(-1020 -677)">
    <rect id="Rect치ngulo_345875" data-name="Rect치ngulo 345875" width="28" height="28" rx="5" transform="translate(1020 677)" fill="#61d7fe"/>
    <g id="Grupo_1001155" data-name="Grupo 1001155" transform="translate(1023 681)">
      <g id="Grupo_1001155-2" data-name="Grupo 1001155" clip-path="url(#clip-path)">
        <path id="Trazado_707574" data-name="Trazado 707574" d="M14.06,21.111h-.289a3.222,3.222,0,0,1-.464-.416c-.479-.627-.942-1.267-1.4-1.908a.33.33,0,0,0-.3-.153c-1.367.005-2.734,0-4.1,0-.553,0-.776-.221-.776-.77q0-3.8,0-7.6v-.223c-.546.678-1.044,1.359-1.545,2.038a.645.645,0,0,1-1.136-.005c-.488-.664-.977-1.326-1.46-1.994a.308.308,0,0,0-.288-.145c-.488.008-.976-.013-1.463.009A.775.775,0,0,1,0,9.486V.459A.8.8,0,0,1,.831,0q6.39.013,12.78.006c.554,0,.776.221.776.77q0,3.833,0,7.667V8.7H20.38a.64.64,0,0,1,.729.733q0,4.235,0,8.47a.64.64,0,0,1-.733.73c-1.381,0-2.762,0-4.143,0a.329.329,0,0,0-.3.154c-.462.641-.924,1.281-1.4,1.908a3.158,3.158,0,0,1-.467.414M7.974,9.95V17.4h.24c1.264,0,2.528,0,3.792,0a.73.73,0,0,1,.648.325c.283.4.575.787.864,1.18l.4.543c.429-.584.848-1.145,1.255-1.713a.747.747,0,0,1,.663-.335c1.271.007,2.542,0,3.813,0h.214V9.95ZM13.135,8.7V1.253H1.25V8.7c.493,0,.974.006,1.453,0a.71.71,0,0,1,.63.318c.345.479.7.954,1.046,1.43.071.1.145.193.229.3.061-.078.108-.135.152-.2.366-.5.738-.992,1.094-1.5A.8.8,0,0,1,6.567,8.7c2.1.007,4.205,0,6.308,0h.26" transform="translate(0 0)" fill="#12263f"/>
        <path id="Trazado_707575" data-name="Trazado 707575" d="M268.842,282.785a1.357,1.357,0,0,1,.135-.195q1.177-1.183,2.36-2.36a.617.617,0,0,1,1.068.264.576.576,0,0,1-.159.569q-1.5,1.512-3.017,3.014a.594.594,0,0,1-.855,0q-.8-.777-1.574-1.573a.616.616,0,0,1,.871-.871c.332.318.653.649.979.973.048.047.1.092.192.178" transform="translate(-255.604 -268.454)" fill="#12263f"/>
        <path id="Trazado_707576" data-name="Trazado 707576" d="M123.693,69.069c.387.385.756.754,1.127,1.121a.62.62,0,0,1,.192.636.614.614,0,0,1-1.036.267c-.328-.313-.643-.639-.963-.961-.058-.058-.11-.122-.181-.2L121.7,71.07a.619.619,0,1,1-.9-.851c.319-.332.648-.654.976-.977a1.95,1.95,0,0,1,.194-.147c-.41-.41-.793-.783-1.165-1.167a.618.618,0,1,1,.887-.86l.977.976c.048.048.1.094.158.151.384-.386.759-.768,1.141-1.143a.609.609,0,0,1,.739-.118.568.568,0,0,1,.313.617.959.959,0,0,1-.231.421c-.349.369-.717.72-1.1,1.1" transform="translate(-115.63 -64.096)" fill="#12263f"/>
      </g>
    </g>
  </g>
</svg>
